<svg width="164" height="43" viewBox="0 0 164 43" fill="none" xmlns="http://www.w3.org/2000/svg">
<path d="M58.4534 14.863C59.6733 16.0829 59.6733 18.0608 58.4533 19.2808L36.2891 41.445C35.0691 42.665 33.0912 42.665 31.8713 41.445L17.9233 27.497C16.7033 26.2771 16.7033 24.2992 17.9233 23.0793L40.0876 0.91495C41.3075 -0.304985 43.2854 -0.304982 44.5053 0.914952L58.4534 14.863Z" fill="#4A6DFF"/>
<path d="M41.445 14.863C42.665 16.0829 42.665 18.0608 41.445 19.2808L19.2808 41.445C18.0608 42.665 16.0829 42.665 14.863 41.445L0.91495 27.497C-0.304984 26.2771 -0.304983 24.2992 0.914952 23.0793L23.0793 0.91495C24.2992 -0.304985 26.2771 -0.304982 27.497 0.914952L41.445 14.863Z" fill="#2EB9FF"/>
<path d="M82.9117 22.7404C84.0891 22.9599 85.057 23.5486 85.8153 24.5065C86.5737 25.4644 86.9528 26.562 86.9528 27.7993C86.9528 28.9169 86.6734 29.9047 86.1147 30.7628C85.5758 31.601 84.7876 32.2596 83.7498 32.7385C82.7121 33.2175 81.4848 33.4569 80.0679 33.4569H71.0576V12.5627H79.6787C81.0956 12.5627 82.313 12.7922 83.3308 13.2512C84.3685 13.7102 85.1468 14.3488 85.6656 15.167C86.2045 15.9852 86.4739 16.9131 86.4739 17.9509C86.4739 19.1682 86.1446 20.186 85.486 21.0042C84.8474 21.8224 83.9893 22.4011 82.9117 22.7404ZM75.2484 21.1838H79.0801C80.0779 21.1838 80.8462 20.9643 81.385 20.5252C81.9238 20.0662 82.1932 19.4177 82.1932 18.5795C82.1932 17.7413 81.9238 17.0928 81.385 16.6338C80.8462 16.1748 80.0779 15.9453 79.0801 15.9453H75.2484V21.1838ZM79.4692 30.0444C80.487 30.0444 81.2753 29.8049 81.834 29.326C82.4128 28.847 82.7021 28.1685 82.7021 27.2904C82.7021 26.3924 82.4028 25.6939 81.8041 25.195C81.2054 24.6762 80.3972 24.4167 79.3794 24.4167H75.2484V30.0444H79.4692Z" fill="white"/>
<path d="M96.4594 33.7263C94.8629 33.7263 93.426 33.3771 92.1488 32.6786C90.8716 31.9602 89.8638 30.9524 89.1254 29.6553C88.407 28.3581 88.0478 26.8614 88.0478 25.1651C88.0478 23.4688 88.417 21.9721 89.1553 20.6749C89.9137 19.3778 90.9414 18.3799 92.2386 17.6815C93.5358 16.963 94.9826 16.6038 96.5791 16.6038C98.1756 16.6038 99.6224 16.963 100.92 17.6815C102.217 18.3799 103.235 19.3778 103.973 20.6749C104.731 21.9721 105.11 23.4688 105.11 25.1651C105.11 26.8614 104.721 28.3581 103.943 29.6553C103.185 30.9524 102.147 31.9602 100.83 32.6786C99.5326 33.3771 98.0758 33.7263 96.4594 33.7263ZM96.4594 30.0743C97.2177 30.0743 97.9262 29.8947 98.5847 29.5355C99.2632 29.1564 99.802 28.5976 100.201 27.8592C100.6 27.1208 100.8 26.2228 100.8 25.1651C100.8 23.5885 100.381 22.3812 99.5426 21.543C98.7244 20.6849 97.7166 20.2558 96.5192 20.2558C95.3219 20.2558 94.3141 20.6849 93.4958 21.543C92.6976 22.3812 92.2985 23.5885 92.2985 25.1651C92.2985 26.7416 92.6876 27.959 93.4659 28.8171C94.2642 29.6553 95.262 30.0743 96.4594 30.0743Z" fill="white"/>
<path d="M111.178 19.4476C111.717 18.5695 112.415 17.881 113.273 17.3821C114.151 16.8832 115.149 16.6338 116.267 16.6338V21.0341H115.159C113.842 21.0341 112.844 21.3435 112.166 21.9621C111.507 22.5807 111.178 23.6584 111.178 25.195V33.4569H106.987V16.8732H111.178V19.4476Z" fill="white"/>
<path d="M116.815 25.1052C116.815 23.4289 117.144 21.9421 117.802 20.645C118.481 19.3478 119.399 18.35 120.556 17.6515C121.714 16.9531 123.001 16.6038 124.418 16.6038C125.496 16.6038 126.523 16.8433 127.501 17.3223C128.479 17.7812 129.257 18.3999 129.836 19.1782V11.3054H134.087V33.4569H129.836V31.0023C129.317 31.8205 128.589 32.4791 127.651 32.978C126.713 33.4769 125.625 33.7263 124.388 33.7263C122.991 33.7263 121.714 33.3671 120.556 32.6487C119.399 31.9303 118.481 30.9225 117.802 29.6253C117.144 28.3082 116.815 26.8015 116.815 25.1052ZM129.866 25.1651C129.866 24.1473 129.666 23.2792 129.267 22.5608C128.868 21.8224 128.329 21.2636 127.651 20.8845C126.972 20.4853 126.244 20.2858 125.466 20.2858C124.687 20.2858 123.969 20.4754 123.31 20.8545C122.652 21.2337 122.113 21.7925 121.694 22.5309C121.295 23.2493 121.095 24.1074 121.095 25.1052C121.095 26.103 121.295 26.9811 121.694 27.7395C122.113 28.4778 122.652 29.0466 123.31 29.4457C123.989 29.8448 124.707 30.0444 125.466 30.0444C126.244 30.0444 126.972 29.8548 127.651 29.4757C128.329 29.0765 128.868 28.5177 129.267 27.7993C129.666 27.0609 129.866 26.1829 129.866 25.1651Z" fill="white"/>
<path d="M152.399 24.8059C152.399 25.4046 152.359 25.9434 152.279 26.4223H140.156C140.255 27.6197 140.674 28.5577 141.413 29.2362C142.151 29.9147 143.059 30.254 144.137 30.254C145.693 30.254 146.801 29.5854 147.46 28.2483H151.98C151.501 29.8448 150.583 31.162 149.226 32.1997C147.869 33.2175 146.202 33.7263 144.227 33.7263C142.63 33.7263 141.193 33.3771 139.916 32.6786C138.659 31.9602 137.671 30.9524 136.953 29.6553C136.254 28.3581 135.905 26.8614 135.905 25.1651C135.905 23.4488 136.254 21.9421 136.953 20.645C137.651 19.3478 138.629 18.35 139.886 17.6515C141.143 16.9531 142.59 16.6038 144.227 16.6038C145.803 16.6038 147.21 16.9431 148.447 17.6216C149.705 18.3001 150.673 19.268 151.351 20.5252C152.049 21.7625 152.399 23.1894 152.399 24.8059ZM148.058 23.6085C148.038 22.5309 147.649 21.6727 146.891 21.0341C146.132 20.3756 145.204 20.0463 144.107 20.0463C143.069 20.0463 142.191 20.3656 141.473 21.0042C140.774 21.6228 140.345 22.4909 140.185 23.6085H148.058Z" fill="white"/>
<path d="M158.451 19.4476C158.99 18.5695 159.688 17.881 160.547 17.3821C161.425 16.8832 162.422 16.6338 163.54 16.6338V21.0341H162.432C161.115 21.0341 160.117 21.3435 159.439 21.9621C158.78 22.5807 158.451 23.6584 158.451 25.195V33.4569H154.26V16.8732H158.451V19.4476Z" fill="white"/>
</svg>
