<svg width="137" height="42" viewBox="0 0 137 42" fill="none" xmlns="http://www.w3.org/2000/svg">
<path d="M81.6242 37.9221C81.6242 38.3833 82.0098 38.7509 82.4705 38.7288L89.3033 38.4023C89.7339 38.3817 90.0724 38.0266 90.0724 37.5955V16.0032C90.0724 15.5445 89.6908 15.1778 89.2324 15.1962L82.3996 15.4695C81.9664 15.4868 81.6242 15.843 81.6242 16.2765V37.9221Z" fill="#183717"/>
<path d="M82.6863 11.1557C83.523 11.9925 84.569 12.4109 85.8242 12.4109C87.1437 12.4109 88.2058 11.9925 89.0104 11.1557C89.8471 10.2868 90.2655 9.2086 90.2655 7.92126C90.2655 6.6661 89.8471 5.60404 89.0104 4.73508C88.2058 3.86612 87.1437 3.43164 85.8242 3.43164C84.569 3.43164 83.523 3.86612 82.6863 4.73508C81.8495 5.60404 81.4311 6.6661 81.4311 7.92126C81.4311 9.2086 81.8495 10.2868 82.6863 11.1557Z" fill="#183717"/>
<path fill-rule="evenodd" clip-rule="evenodd" d="M61.2961 24.9142V36.6503C61.2961 37.0392 61.019 37.3728 60.6368 37.4443L53.6109 38.7577C53.114 38.8506 52.6548 38.4693 52.6548 37.9637V5.34967C52.6548 4.90359 53.0164 4.54198 53.4625 4.54198H67.234C69.5512 4.54198 71.5788 4.97646 73.3167 5.84541C75.0868 6.71437 76.4707 7.90517 77.4684 9.4178C78.4661 10.9304 78.9649 12.7005 78.9649 14.7281C78.9649 16.7557 78.45 18.5419 77.4201 20.0867C76.4224 21.5993 75.0224 22.7901 73.2201 23.6591C72.4405 24.021 71.6036 24.3047 70.7095 24.5101L79.874 36.9841C80.3202 37.5914 79.7652 38.4249 79.0328 38.2473L71.4575 36.4104C71.2857 36.3688 71.1322 36.2718 71.0207 36.1345L61.9139 24.9142H61.2961ZM61.2961 18.735H66.0271C67.4432 18.735 68.5213 18.397 69.2615 17.7212C70.034 17.0131 70.4202 16.0637 70.4202 14.8729C70.4202 13.7143 70.034 12.781 69.2615 12.0729C68.5213 11.3327 67.4432 10.9626 66.0271 10.9626H61.2961V18.735Z" fill="#183717"/>
<path d="M101.533 39.4451C100.084 39.4451 98.6521 39.252 97.236 38.8658C95.8521 38.4796 94.5487 37.9647 93.3257 37.321C92.3904 36.7901 91.5643 36.1997 90.8474 35.5497C90.5237 35.2563 90.5275 34.7555 90.8332 34.4434L94.2877 30.9162C94.6066 30.5905 95.1294 30.5967 95.4771 30.8914C96.1107 31.4284 96.8257 31.8659 97.6222 32.2038C98.7165 32.6544 99.8751 32.8797 101.098 32.8797C101.806 32.8797 102.337 32.7831 102.691 32.59C103.077 32.3969 103.27 32.1234 103.27 31.7693C103.27 31.2544 102.997 30.8682 102.45 30.6107C101.935 30.3211 101.243 30.0797 100.374 29.8866C99.5372 29.6613 98.6521 29.4038 97.7188 29.1142C96.7855 28.7923 95.8843 28.374 95.0154 27.859C94.1464 27.3441 93.4384 26.62 92.8912 25.6866C92.3763 24.7533 92.1188 23.5625 92.1188 22.1142C92.1188 20.6016 92.5211 19.2821 93.3257 18.1557C94.1625 16.997 95.3211 16.0959 96.8016 15.4522C98.282 14.7764 100.02 14.4384 102.015 14.4384C104.043 14.4384 105.974 14.7925 107.808 15.5005C109.369 16.0753 110.936 17.1889 112.062 18.3604C112.378 18.6881 112.316 19.2098 111.955 19.4871L107.96 22.5607C107.624 22.8191 107.151 22.7667 106.836 22.4832C106.287 21.9893 105.769 21.7321 105.057 21.4867C104.123 21.1326 103.27 20.9556 102.498 20.9556C101.758 20.9556 101.227 21.0683 100.905 21.2936C100.583 21.4867 100.422 21.7602 100.422 22.1142C100.422 22.5326 100.68 22.8706 101.195 23.128C101.742 23.3855 102.434 23.6269 103.27 23.8522C104.139 24.0453 105.024 24.3027 105.926 24.6246C106.859 24.9464 107.744 25.397 108.581 25.9763C109.45 26.5234 110.142 27.2636 110.657 28.197C111.204 29.1303 111.477 30.3372 111.477 31.8176C111.477 34.167 110.576 36.0337 108.774 37.4176C106.972 38.7693 104.558 39.4451 101.533 39.4451Z" fill="#183717"/>
<path fill-rule="evenodd" clip-rule="evenodd" d="M117.787 37.7555C119.815 38.7854 122.148 39.3003 124.787 39.3003C126.879 39.3003 128.746 38.9624 130.387 38.2865C131.819 37.7083 133.062 36.8945 134.117 35.8451C134.419 35.5448 134.401 35.0593 134.1 34.7582L130.851 31.5091C130.521 31.1794 129.984 31.2008 129.639 31.5141C129.086 32.0153 128.483 32.4061 127.828 32.6866C126.959 33.0728 125.946 33.2659 124.787 33.2659C123.564 33.2659 122.534 33.0245 121.697 32.5417C120.861 32.059 120.217 31.3509 119.766 30.4176C119.656 30.1812 119.559 29.9333 119.476 29.6738L135.408 29.5998C135.777 29.5981 136.101 29.3468 136.174 28.9848C136.253 28.5896 136.303 28.2304 136.325 27.9073C136.389 27.3924 136.421 26.8935 136.421 26.4108C136.421 24.1257 135.89 22.0982 134.828 20.3281C133.798 18.5258 132.35 17.1258 130.483 16.1281C128.649 15.0982 126.541 14.5833 124.159 14.5833C121.713 14.5833 119.509 15.1304 117.546 16.2246C115.615 17.2867 114.086 18.7511 112.96 20.6177C111.833 22.4522 111.27 24.5602 111.27 26.9418C111.27 29.3556 111.849 31.4958 113.008 33.3624C114.166 35.2291 115.759 36.6934 117.787 37.7555ZM119.458 24.2516C119.533 24.0113 119.62 23.7816 119.718 23.5625C120.136 22.6292 120.732 21.9051 121.504 21.3901C122.277 20.8752 123.194 20.6177 124.256 20.6177C125.286 20.6177 126.139 20.843 126.815 21.2936C127.49 21.7441 128.005 22.4039 128.359 23.2729C128.476 23.5477 128.575 23.8485 128.656 24.1754L119.458 24.2516Z" fill="#183717"/>
<path d="M11.3988 1.66247C11.3988 1.18341 11.7555 0.779321 12.2309 0.719901L17.9303 0.0074752C18.4972 -0.0633937 18.998 0.378677 18.998 0.950041V19.6958C18.998 20.2672 18.4972 20.7092 17.9303 20.6384L12.2309 19.9259C11.7555 19.8665 11.3988 19.4624 11.3988 18.9834V1.66247Z" fill="#23A820"/>
<path d="M0 4.03722C0 3.55816 0.356722 3.15407 0.83208 3.09465L6.53149 2.38223C7.09844 2.31136 7.59921 2.75343 7.59921 3.32479V18.271C7.59921 18.8423 7.09844 19.2844 6.53149 19.2135L0.83208 18.5011C0.356722 18.4417 0 18.0376 0 17.5585V4.03722Z" fill="#23A820"/>
<path d="M29.6773 1.59393C30.1002 1.69965 30.3968 2.07959 30.3968 2.51547V10.4343C30.3968 10.9133 30.0401 11.3174 29.5647 11.3768L23.8653 12.0893C23.2984 12.1601 22.7976 11.7181 22.7976 11.1467V1.09062C22.7976 0.472643 23.3784 0.0191996 23.9779 0.169081L29.6773 1.59393Z" fill="#23A820"/>
<path d="M40.8457 4.89022C40.8457 4.45435 40.5491 4.0744 40.1262 3.96869L34.4268 2.54383C33.8273 2.39395 33.2465 2.8474 33.2465 3.46537V10.6717C33.2465 11.2431 33.7473 11.6852 34.3143 11.6143L40.0137 10.9019C40.489 10.8425 40.8457 10.4384 40.8457 9.95932V4.89022Z" fill="#23A820"/>
<path d="M40.8457 14.5975L22.3227 15.0724C22.5907 18.5565 25.4959 21.2468 28.9902 21.2468H33.2465V25.2894L0 22.1967V42L40.8457 39.1503V14.5975Z" fill="#23A820"/>
</svg>
