<svg width="160" height="50" viewBox="0 0 160 50" fill="none" xmlns="http://www.w3.org/2000/svg">
<circle cx="24.7148" cy="24.7148" r="24.7148" fill="#F36C33"/>
<path fill-rule="evenodd" clip-rule="evenodd" d="M32.776 11.8547C30.7737 10.8565 28.4291 10.8096 26.3885 11.7269L14.1062 17.2478C13.2846 17.6171 12.756 18.4342 12.756 19.335V20.791C12.756 21.6588 13.2469 22.4519 14.0234 22.8391L23.9519 27.7888C24.5949 28.1093 25.351 28.1093 25.994 27.7888L36.0094 22.7957C37.7684 21.9188 39.8355 23.198 39.8355 25.1635V27.0287C39.8355 28.0319 39.2681 28.9489 38.3703 29.3965L26.1534 35.4871C25.41 35.8576 24.5358 35.8576 23.7925 35.4871L14.2751 30.7423C13.5768 30.3941 12.756 30.902 12.756 31.6823C12.756 32.0806 12.9813 32.4446 13.3378 32.6224L23.9642 37.92C24.6027 38.2384 25.3532 38.2407 25.9937 37.9262L34.3332 33.8318C34.989 33.5099 35.7817 33.7805 36.1036 34.4363C36.4256 35.0921 36.155 35.8848 35.4992 36.2067L26.1434 40.8001C25.4029 41.1636 24.5353 41.161 23.797 40.7929L11.5756 34.7001C10.6778 34.2525 10.1104 33.3356 10.1104 32.3323V29.985C10.1104 28.0195 12.1775 26.7403 13.9365 27.6172L23.9519 32.6103C24.5949 32.9308 25.351 32.9308 25.994 32.6103L36.7276 27.2591C37.0108 27.1179 37.1898 26.8287 37.1898 26.5122C37.1898 25.8921 36.5377 25.4886 35.9828 25.7652L26.1534 30.6656C25.41 31.0361 24.5358 31.0361 23.7925 30.6656L11.5756 24.575C10.6778 24.1274 10.1104 23.2104 10.1104 22.2072V17.8547C10.1104 16.8132 10.7214 15.8686 11.6713 15.4416L25.3038 9.31374C28.0681 8.07118 31.2441 8.13477 33.9564 9.48697C38.9043 11.9537 38.8012 19.0488 33.7836 21.3707L26.111 24.9211C25.3753 25.2616 24.5241 25.2459 23.8014 24.8787L16.546 21.1917C15.8947 20.8608 15.635 20.0644 15.966 19.4131C16.2969 18.7618 17.0932 18.5021 17.7446 18.8331L24.01 22.017C24.6351 22.3346 25.3714 22.3482 26.0077 22.0537L32.6725 18.9696C35.6766 17.5795 35.7383 13.3316 32.776 11.8547Z" fill="white"/>
<path d="M64.8759 17.6276V22.8966H71.9515V26.2387H64.8759V31.8089H72.8547V35.2413H60.6606V14.1952H72.8547V17.6276H64.8759Z" fill="black"/>
<path d="M79.6963 20.9998C80.2382 20.1969 80.9809 19.5445 81.9243 19.0427C82.8878 18.5409 83.9818 18.29 85.2062 18.29C86.6314 18.29 87.916 18.6412 89.0601 19.3438C90.2243 20.0463 91.1377 21.0499 91.8 22.3547C92.4825 23.6393 92.8237 25.1347 92.8237 26.8409C92.8237 28.5471 92.4825 30.0625 91.8 31.3873C91.1377 32.692 90.2243 33.7057 89.0601 34.4283C87.916 35.1509 86.6314 35.5122 85.2062 35.5122C83.9617 35.5122 82.8677 35.2714 81.9243 34.7896C81.001 34.2878 80.2583 33.6455 79.6963 32.8627V35.2413H75.481V12.9607H79.6963V20.9998ZM88.5182 26.8409C88.5182 25.8373 88.3074 24.9741 87.8859 24.2515C87.4844 23.5088 86.9425 22.9468 86.26 22.5654C85.5976 22.184 84.875 21.9934 84.0922 21.9934C83.3294 21.9934 82.6068 22.1941 81.9243 22.5955C81.2619 22.9769 80.72 23.5389 80.2985 24.2816C79.897 25.0243 79.6963 25.8975 79.6963 26.9011C79.6963 27.9047 79.897 28.7779 80.2985 29.5206C80.72 30.2633 81.2619 30.8353 81.9243 31.2368C82.6068 31.6182 83.3294 31.8089 84.0922 31.8089C84.875 31.8089 85.5976 31.6081 86.26 31.2067C86.9425 30.8052 87.4844 30.2332 87.8859 29.4905C88.3074 28.7478 88.5182 27.8646 88.5182 26.8409Z" fill="black"/>
<path d="M102.089 35.5122C100.483 35.5122 99.0382 35.161 97.7536 34.4584C96.469 33.7358 95.4553 32.7222 94.7126 31.4174C93.99 30.1127 93.6287 28.6073 93.6287 26.9011C93.6287 25.1949 94 23.6895 94.7427 22.3848C95.5055 21.0801 96.5392 20.0764 97.8439 19.3739C99.1487 18.6513 100.604 18.29 102.21 18.29C103.816 18.29 105.271 18.6513 106.576 19.3739C107.88 20.0764 108.904 21.0801 109.647 22.3848C110.409 23.6895 110.791 25.1949 110.791 26.9011C110.791 28.6073 110.399 30.1127 109.617 31.4174C108.854 32.7222 107.81 33.7358 106.485 34.4584C105.18 35.161 103.715 35.5122 102.089 35.5122ZM102.089 31.839C102.852 31.839 103.565 31.6583 104.227 31.297C104.909 30.9156 105.451 30.3536 105.853 29.6109C106.254 28.8682 106.455 27.965 106.455 26.9011C106.455 25.3154 106.034 24.101 105.19 23.2579C104.368 22.3948 103.354 21.9632 102.15 21.9632C100.945 21.9632 99.9315 22.3948 99.1085 23.2579C98.3056 24.101 97.9042 25.3154 97.9042 26.9011C97.9042 28.4868 98.2956 29.7113 99.0784 30.5744C99.8813 31.4174 100.885 31.839 102.089 31.839Z" fill="black"/>
<path d="M120.085 35.5122C118.479 35.5122 117.034 35.161 115.75 34.4584C114.465 33.7358 113.451 32.7222 112.709 31.4174C111.986 30.1127 111.625 28.6073 111.625 26.9011C111.625 25.1949 111.996 23.6895 112.739 22.3848C113.501 21.0801 114.535 20.0764 115.84 19.3739C117.145 18.6513 118.6 18.29 120.206 18.29C121.811 18.29 123.267 18.6513 124.571 19.3739C125.876 20.0764 126.9 21.0801 127.643 22.3848C128.405 23.6895 128.787 25.1949 128.787 26.9011C128.787 28.6073 128.395 30.1127 127.612 31.4174C126.85 32.7222 125.806 33.7358 124.481 34.4584C123.176 35.161 121.711 35.5122 120.085 35.5122ZM120.085 31.839C120.848 31.839 121.561 31.6583 122.223 31.297C122.905 30.9156 123.447 30.3536 123.849 29.6109C124.25 28.8682 124.451 27.965 124.451 26.9011C124.451 25.3154 124.029 24.101 123.186 23.2579C122.363 22.3948 121.35 21.9632 120.145 21.9632C118.941 21.9632 117.927 22.3948 117.104 23.2579C116.302 24.101 115.9 25.3154 115.9 26.9011C115.9 28.4868 116.292 29.7113 117.074 30.5744C117.877 31.4174 118.881 31.839 120.085 31.839Z" fill="black"/>
<path d="M140.55 35.2413L134.89 28.1356V35.2413H130.674V12.9607H134.89V25.6365L140.49 18.5609H145.97L138.623 26.9312L146.03 35.2413H140.55Z" fill="black"/>
<path d="M153.436 35.5122C152.071 35.5122 150.847 35.2714 149.763 34.7896C148.679 34.2878 147.816 33.6154 147.174 32.7723C146.551 31.9293 146.21 30.9959 146.15 29.9722H150.395C150.476 30.6145 150.787 31.1465 151.329 31.568C151.891 31.9895 152.583 32.2003 153.406 32.2003C154.209 32.2003 154.831 32.0397 155.273 31.7185C155.735 31.3974 155.965 30.9859 155.965 30.4841C155.965 29.9421 155.684 29.5407 155.122 29.2797C154.58 28.9987 153.707 28.6976 152.503 28.3764C151.258 28.0754 150.235 27.7642 149.432 27.4431C148.649 27.1219 147.966 26.6301 147.384 25.9677C146.822 25.3053 146.541 24.4121 146.541 23.288C146.541 22.3647 146.802 21.5217 147.324 20.7589C147.866 19.9961 148.629 19.394 149.612 18.9524C150.616 18.5108 151.79 18.29 153.135 18.29C155.122 18.29 156.708 18.7918 157.892 19.7954C159.077 20.779 159.729 22.1138 159.849 23.7999H155.815C155.755 23.1375 155.474 22.6156 154.972 22.2342C154.49 21.8328 153.838 21.6321 153.015 21.6321C152.252 21.6321 151.66 21.7726 151.238 22.0536C150.837 22.3346 150.636 22.726 150.636 23.2278C150.636 23.7899 150.917 24.2214 151.479 24.5225C152.041 24.8035 152.914 25.0946 154.099 25.3957C155.303 25.6968 156.297 26.0079 157.079 26.329C157.862 26.6502 158.535 27.152 159.097 27.8345C159.679 28.4969 159.98 29.3801 160 30.4841C160 31.4475 159.729 32.3107 159.187 33.0734C158.665 33.8362 157.902 34.4384 156.899 34.88C155.915 35.3015 154.761 35.5122 153.436 35.5122Z" fill="black"/>
</svg>
