<svg width="155" height="35" viewBox="0 0 155 35" fill="none" xmlns="http://www.w3.org/2000/svg">
<path fill-rule="evenodd" clip-rule="evenodd" d="M16.9154 1.31727C14.8144 0.447608 12.5626 0 10.2884 0L0 1.0317e-06V34.61H10.2884C12.5626 34.61 14.8144 34.1624 16.9154 33.2927C19.0164 32.4231 20.9255 31.1484 22.5335 29.5415C24.1416 27.9346 25.4171 26.0269 26.2874 23.9273C27.1577 21.8278 27.6056 19.5775 27.6056 17.305C27.6056 15.0325 27.1577 12.7822 26.2874 10.6827C25.4171 8.58312 24.1416 6.67543 22.5335 5.06852C20.9255 3.4616 19.0164 2.18692 16.9154 1.31727ZM8.96443 8.34701H15.6876V13.8619L21.1482 13.8292L21.1881 20.4712L15.6876 20.5042V26.0592H8.96443V20.5445L3.53993 20.5771L3.50004 13.935L8.96443 13.9022V8.34701Z" fill="white"/>
<path d="M140.656 6.18042H145.404V14.8869H154.111V19.6358H145.404V28.3423H140.656V19.6358H131.949V14.8869H140.656V6.18042Z" fill="white"/>
<path fill-rule="evenodd" clip-rule="evenodd" d="M47.044 7.943C45.3652 7.0733 43.4135 6.63845 41.1887 6.63845H33.7861V27.8146H41.1887C43.4135 27.8146 45.3652 27.3797 47.044 26.51C48.7429 25.6403 50.0475 24.4167 50.9576 22.8391C51.888 21.2413 52.3532 19.3805 52.3532 17.2568C52.3532 15.1332 51.888 13.2724 50.9576 11.6746C50.0475 10.0566 48.7429 8.81269 47.044 7.943ZM46.1945 22.384C44.981 23.5975 43.2618 24.2043 41.037 24.2043H38.0335V10.2184H41.037C43.2618 10.2184 44.981 10.8454 46.1945 12.0993C47.408 13.3331 48.0148 15.0523 48.0148 17.2568C48.0148 19.4614 47.408 21.1705 46.1945 22.384Z" fill="white"/>
<path fill-rule="evenodd" clip-rule="evenodd" d="M57.4135 27.0258C58.7079 27.7337 60.1642 28.0876 61.7822 28.0876C63.4205 28.0876 64.8969 27.7337 66.2116 27.0258C67.5465 26.2977 68.5982 25.2763 69.3668 23.9616C70.1556 22.6469 70.55 21.13 70.55 19.4109C70.55 17.6917 70.1657 16.1748 69.3971 14.8601C68.6488 13.5455 67.6173 12.5342 66.3026 11.8263C64.9879 11.0982 63.5216 10.7341 61.9036 10.7341C60.2855 10.7341 58.8192 11.0982 57.5045 11.8263C56.1898 12.5342 55.1482 13.5455 54.3797 14.8601C53.6313 16.1748 53.2571 17.6917 53.2571 19.4109C53.2571 21.13 53.6212 22.6469 54.3493 23.9616C55.0977 25.2763 56.1191 26.2977 57.4135 27.0258ZM63.9362 23.8403C63.2688 24.2043 62.5508 24.3863 61.7822 24.3863C60.5687 24.3863 59.5574 23.9616 58.7484 23.1121C57.9596 22.2424 57.5652 21.0087 57.5652 19.4109C57.5652 17.8131 57.9697 16.5894 58.7787 15.7399C59.608 14.8702 60.6293 14.4354 61.8429 14.4354C63.0564 14.4354 64.0778 14.8702 64.907 15.7399C65.7565 16.5894 66.1813 17.8131 66.1813 19.4109C66.1813 20.4828 65.979 21.393 65.5745 22.1413C65.17 22.8897 64.6239 23.456 63.9362 23.8403Z" fill="white"/>
<path d="M71.3599 19.4109C71.3599 17.6715 71.7138 16.1546 72.4217 14.8601C73.1296 13.5455 74.1105 12.5342 75.3645 11.8263C76.6185 11.0982 78.0545 10.7341 79.6726 10.7341C81.7558 10.7341 83.4749 11.26 84.8301 12.3117C86.2054 13.3432 87.1257 14.7994 87.5908 16.6804H83.0098C82.7671 15.9523 82.3524 15.386 81.7659 14.9815C81.1996 14.5567 80.4917 14.3444 79.6422 14.3444C78.4287 14.3444 77.468 14.7893 76.7601 15.6793C76.0522 16.549 75.6982 17.7928 75.6982 19.4109C75.6982 21.0087 76.0522 22.2526 76.7601 23.1425C77.468 24.0122 78.4287 24.447 79.6422 24.447C81.3614 24.447 82.4839 23.6785 83.0098 22.1413H87.5908C87.1257 23.9616 86.2054 25.4077 84.8301 26.4797C83.4547 27.5516 81.7355 28.0876 79.6726 28.0876C78.0545 28.0876 76.6185 27.7337 75.3645 27.0258C74.1105 26.2977 73.1296 25.2864 72.4217 23.9919C71.7138 22.6773 71.3599 21.1503 71.3599 19.4109Z" fill="white"/>
<path d="M94.434 22.6267V14.4961H98.196V11.0072H94.434V6.85082H90.1563V11.0072H88.154V14.4961H90.1563V22.5964C90.1563 26.0752 91.9463 27.8146 95.5262 27.8146H98.196V24.2347H96.224C95.5768 24.2347 95.1116 24.1133 94.8284 23.8706C94.5655 23.6077 94.434 23.193 94.434 22.6267Z" fill="white"/>
<path fill-rule="evenodd" clip-rule="evenodd" d="M107.501 28.0876C105.883 28.0876 104.426 27.7337 103.132 27.0258C101.837 26.2977 100.816 25.2763 100.068 23.9616C99.3396 22.6469 98.9755 21.13 98.9755 19.4109C98.9755 17.6917 99.3497 16.1748 100.098 14.8601C100.867 13.5455 101.908 12.5342 103.223 11.8263C104.538 11.0982 106.004 10.7341 107.622 10.7341C109.24 10.7341 110.706 11.0982 112.021 11.8263C113.336 12.5342 114.367 13.5455 115.115 14.8601C115.884 16.1748 116.268 17.6917 116.268 19.4109C116.268 21.13 115.874 22.6469 115.085 23.9616C114.317 25.2763 113.265 26.2977 111.93 27.0258C110.615 27.7337 109.139 28.0876 107.501 28.0876ZM107.501 24.3863C108.269 24.3863 108.987 24.2043 109.655 23.8403C110.342 23.456 110.888 22.8897 111.293 22.1413C111.697 21.393 111.9 20.4828 111.9 19.4109C111.9 17.8131 111.475 16.5894 110.625 15.7399C109.796 14.8702 108.775 14.4354 107.561 14.4354C106.348 14.4354 105.326 14.8702 104.497 15.7399C103.688 16.5894 103.284 17.8131 103.284 19.4109C103.284 21.0087 103.678 22.2424 104.467 23.1121C105.276 23.9616 106.287 24.3863 107.501 24.3863Z" fill="white"/>
<path d="M124.541 11.5229C123.672 12.0286 122.964 12.7263 122.418 13.6163V11.0072H118.17V27.8146H122.418V19.4412C122.418 17.8838 122.751 16.7917 123.419 16.1647C124.107 15.5377 125.118 15.2242 126.453 15.2242H127.575V10.7645C126.443 10.7645 125.431 11.0173 124.541 11.5229Z" fill="white"/>
</svg>
