<svg width="160" height="39" viewBox="0 0 160 39" fill="none" xmlns="http://www.w3.org/2000/svg">
<path d="M2.59291 8.46461C3.65434 6.42143 9.22297 1.46626 13.7168 0.503383C15.7313 0.0717424 16.4696 1.18542 16.563 2.80693C25.6529 3.85739 34.1414 11.5134 36.0887 20.8019C36.6154 23.3144 36.6134 25.7075 36.159 27.8827L38.3772 27.8477C37.3147 30.7555 33.7806 36.8395 25.4598 38.5842C25.1432 38.6506 24.8271 38.7032 24.5117 38.7427C23.7178 38.8594 22.8943 38.9198 22.0443 38.9198C12.1902 38.9198 2.50124 30.8081 0.403543 20.8019C-0.595653 16.0356 0.307748 11.6992 2.59291 8.46461Z" fill="#B42B4C"/>
<ellipse cx="17.5196" cy="18.3403" rx="17.5196" ry="18.3403" transform="matrix(1 0 0.205179 0.978724 0.336426 0)" fill="white"/>
<ellipse cx="13.7599" cy="14.398" rx="13.7599" ry="14.398" transform="matrix(1 0 0.205179 0.978724 5.27734 3.01953)" fill="#FF3767"/>
<ellipse cx="10.1846" cy="10.4032" rx="10.1846" ry="10.4032" transform="matrix(1 0 0.205179 0.978724 10.0283 6.47754)" fill="white"/>
<circle cx="6.52617" cy="6.52617" r="6.52617" transform="matrix(1 0 0.205179 0.978724 15.1016 9.8501)" fill="#FF3767"/>
<circle cx="3.22092" cy="3.22092" r="3.22092" transform="matrix(1 0 0.205179 0.978724 19.085 13.0852)" fill="white"/>
<path d="M68.5813 28.379C68.5813 28.6029 68.7628 28.7844 68.9867 28.7844H72.0686C72.2925 28.7844 72.474 28.6029 72.474 28.379V13.5777H68.9867C68.7628 13.5777 68.5813 13.7592 68.5813 13.9831V28.379Z" fill="white"/>
<path d="M68.7066 11.1692C69.08 11.5613 69.6495 11.7573 70.415 11.7573C71.1804 11.7573 71.7405 11.5613 72.0953 11.1692C72.45 10.7585 72.6274 10.2544 72.6274 9.65695C72.6274 9.02217 72.45 8.50874 72.0953 8.11667C71.7405 7.7246 71.1804 7.52856 70.415 7.52856C69.6495 7.52856 69.08 7.7246 68.7066 8.11667C68.3519 8.50874 68.1745 9.02217 68.1745 9.65695C68.1745 10.2544 68.3519 10.7585 68.7066 11.1692Z" fill="white"/>
<path fill-rule="evenodd" clip-rule="evenodd" d="M62.4451 21.6711C61.2502 22.2312 59.794 22.5113 58.0763 22.5113H54.9958V28.379C54.9958 28.6029 54.8143 28.7844 54.5903 28.7844H51.4245C51.2006 28.7844 51.019 28.6029 51.019 28.379V8.6061C51.019 8.3822 51.2006 8.20069 51.4245 8.20069H54.5903C54.6341 8.20069 54.6762 8.20762 54.7157 8.22044C54.7552 8.20762 54.7973 8.20069 54.8411 8.20069H58.0763C59.794 8.20069 61.2502 8.48074 62.4451 9.04084C63.6587 9.60094 64.5828 10.4038 65.2176 11.4493C65.8524 12.4761 66.1698 13.699 66.1698 15.1179V15.566C66.1698 16.9849 65.8524 18.2172 65.2176 19.2627C64.5828 20.2895 63.6587 21.0924 62.4451 21.6711ZM60.4287 12.1214C59.8873 11.804 59.2152 11.6453 58.4124 11.6453H54.9958V19.0667H58.4124C59.2152 19.0667 59.8873 18.908 60.4287 18.5906C60.9888 18.2732 61.4089 17.8344 61.689 17.2743C61.9877 16.7142 62.1371 16.0701 62.1371 15.342C62.1371 14.6138 61.9877 13.9697 61.689 13.4096C61.4089 12.8495 60.9888 12.4201 60.4287 12.1214Z" fill="white"/>
<path d="M75.9654 28.7844C75.7415 28.7844 75.56 28.6029 75.56 28.379V13.9831C75.56 13.7592 75.7415 13.5777 75.9654 13.5777H78.2351C78.4591 13.5777 78.6406 13.7592 78.6406 13.9831V17.325C78.7308 16.935 78.8428 16.5727 78.9766 16.2381C79.3874 15.1926 79.9941 14.4085 80.797 13.8857C81.6184 13.363 82.636 13.1016 83.8495 13.1016H84.0175C85.8285 13.1016 87.2008 13.6897 88.1343 14.8659C89.0678 16.0234 89.5345 17.7597 89.5345 20.0748V28.379C89.5345 28.6029 89.353 28.7844 89.1291 28.7844H86.0472C85.8233 28.7844 85.6418 28.6029 85.6418 28.379V19.7388C85.6418 18.8053 85.3711 18.0491 84.8297 17.4704C84.3069 16.8916 83.5788 16.6022 82.6453 16.6022C81.6931 16.6022 80.9183 16.9009 80.3209 17.4984C79.7421 18.0771 79.4527 18.8613 79.4527 19.8508V28.379C79.4527 28.6029 79.2712 28.7844 79.0473 28.7844H75.9654Z" fill="white"/>
<path fill-rule="evenodd" clip-rule="evenodd" d="M104.053 21.6711C102.859 22.2312 101.402 22.5113 99.6846 22.5113H96.6041V28.379C96.6041 28.6029 96.4226 28.7844 96.1986 28.7844H93.0328C92.8088 28.7844 92.6273 28.6029 92.6273 28.379V8.6061C92.6273 8.3822 92.8088 8.20069 93.0328 8.20069H96.1986C96.2424 8.20069 96.2845 8.20762 96.324 8.22044C96.3635 8.20762 96.4056 8.20069 96.4494 8.20069H99.6846C101.402 8.20069 102.859 8.48074 104.053 9.04084C105.267 9.60094 106.191 10.4038 106.826 11.4493C107.461 12.4761 107.778 13.699 107.778 15.1179V15.566C107.778 16.9849 107.461 18.2172 106.826 19.2627C106.191 20.2895 105.267 21.0924 104.053 21.6711ZM102.037 12.1214C101.496 11.804 100.823 11.6453 100.021 11.6453H96.6041V19.0667H100.021C100.823 19.0667 101.496 18.908 102.037 18.5906C102.597 18.2732 103.017 17.8344 103.297 17.2743C103.596 16.7142 103.745 16.0701 103.745 15.342C103.745 14.6138 103.596 13.9697 103.297 13.4096C103.017 12.8495 102.597 12.4201 102.037 12.1214Z" fill="white"/>
<path fill-rule="evenodd" clip-rule="evenodd" d="M116.443 29.3165C115.098 29.3165 113.913 29.1018 112.886 28.6724C111.859 28.243 110.991 27.6642 110.281 26.9361C109.572 26.1893 109.031 25.3491 108.657 24.4156C108.302 23.4821 108.125 22.5113 108.125 21.5031V20.915C108.125 19.8695 108.312 18.8799 108.685 17.9464C109.077 16.9943 109.628 16.1541 110.337 15.426C111.066 14.6792 111.943 14.1004 112.97 13.6897C113.997 13.2603 115.154 13.0456 116.443 13.0456C117.731 13.0456 118.888 13.2603 119.915 13.6897C120.942 14.1004 121.81 14.6792 122.52 15.426C123.248 16.1541 123.799 16.9943 124.172 17.9464C124.545 18.8799 124.732 19.8695 124.732 20.915V21.5031C124.732 22.5113 124.545 23.4821 124.172 24.4156C123.817 25.3491 123.285 26.1893 122.576 26.9361C121.866 27.6642 120.998 28.243 119.971 28.6724C118.944 29.1018 117.768 29.3165 116.443 29.3165ZM116.443 25.9839C117.395 25.9839 118.198 25.7785 118.851 25.3678C119.504 24.9384 119.999 24.3689 120.335 23.6595C120.671 22.9313 120.839 22.1099 120.839 21.195C120.839 20.2615 120.662 19.4401 120.307 18.7306C119.971 18.0025 119.467 17.433 118.795 17.0223C118.142 16.5929 117.357 16.3782 116.443 16.3782C115.528 16.3782 114.734 16.5929 114.062 17.0223C113.409 17.433 112.905 18.0025 112.55 18.7306C112.195 19.4401 112.018 20.2615 112.018 21.195C112.018 22.1099 112.186 22.9313 112.522 23.6595C112.877 24.3689 113.381 24.9384 114.034 25.3678C114.688 25.7785 115.49 25.9839 116.443 25.9839Z" fill="white"/>
<path d="M127.468 28.379C127.468 28.6029 127.65 28.7844 127.874 28.7844H130.956C131.18 28.7844 131.361 28.6029 131.361 28.379V13.5777H127.874C127.65 13.5777 127.468 13.7592 127.468 13.9831V28.379Z" fill="white"/>
<path d="M127.594 11.1692C127.967 11.5613 128.537 11.7573 129.302 11.7573C130.068 11.7573 130.628 11.5613 130.982 11.1692C131.337 10.7585 131.515 10.2544 131.515 9.65695C131.515 9.02217 131.337 8.50874 130.982 8.11667C130.628 7.7246 130.068 7.52856 129.302 7.52856C128.537 7.52856 127.967 7.7246 127.594 8.11667C127.239 8.50874 127.062 9.02217 127.062 9.65695C127.062 10.2544 127.239 10.7585 127.594 11.1692Z" fill="white"/>
<path d="M134.853 28.7844C134.629 28.7844 134.447 28.6029 134.447 28.379V13.9831C134.447 13.7592 134.629 13.5777 134.853 13.5777H137.122C137.346 13.5777 137.528 13.7592 137.528 13.9831V17.325C137.618 16.935 137.73 16.5727 137.864 16.2381C138.275 15.1926 138.881 14.4085 139.684 13.8857C140.506 13.363 141.523 13.1016 142.737 13.1016H142.905C144.716 13.1016 146.088 13.6897 147.021 14.8659C147.955 16.0234 148.422 17.7597 148.422 20.0748V28.379C148.422 28.6029 148.24 28.7844 148.016 28.7844H144.934C144.711 28.7844 144.529 28.6029 144.529 28.379V19.7388C144.529 18.8053 144.258 18.0491 143.717 17.4704C143.194 16.8916 142.466 16.6022 141.532 16.6022C140.58 16.6022 139.806 16.9009 139.208 17.4984C138.629 18.0771 138.34 18.8613 138.34 19.8508V28.379C138.34 28.6029 138.158 28.7844 137.934 28.7844H134.853Z" fill="white"/>
<path d="M154.343 28.4483C155.258 28.8031 156.415 28.9804 157.816 28.9804H159.595C159.819 28.9804 160 28.7989 160 28.575V26.0533C160 25.8293 159.819 25.6478 159.595 25.6478H157.62C156.873 25.6478 156.294 25.4518 155.883 25.0597C155.491 24.649 155.295 24.0702 155.295 23.3234L155.309 16.4342H159.595C159.819 16.4342 160 16.2527 160 16.0288V13.9831C160 13.7592 159.819 13.5777 159.595 13.5777H155.315L155.322 9.69911C155.323 9.47489 155.141 9.29288 154.917 9.29288H152.087C151.864 9.29288 151.682 9.47389 151.682 9.69747L151.674 13.5777H149.652C149.428 13.5777 149.246 13.7592 149.246 13.9831V16.0288C149.246 16.2527 149.428 16.4342 149.652 16.4342H151.668L151.655 23.0714C151.655 24.5463 151.879 25.7225 152.327 26.6C152.775 27.4588 153.447 28.0749 154.343 28.4483Z" fill="white"/>
</svg>
