<svg width="160" height="34" viewBox="0 0 160 34" fill="none" xmlns="http://www.w3.org/2000/svg">
<path d="M6.24062 0H0.552832C0.247512 0 0 0.247511 0 0.552832V11.2706L6.24062 0Z" fill="#35293B"/>
<path d="M0 14.7179C0.0179894 14.7187 0.0361235 14.7191 0.0543965 14.7191H8.72601C9.40476 14.7191 9.93808 15.299 9.88019 15.9741L9.12986 24.7252C9.02323 25.9688 10.693 26.4756 11.2979 25.3832L20.3086 9.10997C20.7353 8.33926 20.1769 7.3942 19.2947 7.3942H10.6231C9.94435 7.3942 9.41103 6.81431 9.46892 6.13923L9.9953 0H18.746C26.8097 0 30.4243 10.1425 24.1879 15.2699L19.3127 19.2781C18.9933 19.5407 18.9304 20.006 19.1685 20.3444L27.5815 32.2989C27.8392 32.6652 27.5773 33.1699 27.1294 33.1699H0.552832C0.247511 33.1699 0 32.9224 0 32.6171V14.7179Z" fill="#35293B"/>
<path d="M94.7314 17.9563V26.3379H99.3608V16.9276C99.3608 15.8182 99.1189 14.8499 98.6347 14.0228C98.1709 13.1755 97.5052 12.5198 96.6377 12.056C95.7701 11.5718 94.7616 11.3296 93.6117 11.3296C92.4823 11.3296 91.4835 11.5718 90.6164 12.056C90.3859 12.1791 90.1694 12.3168 89.9659 12.4685C89.8558 12.5503 89.7499 12.6364 89.6479 12.7266V4.97559H85.0185V26.3379H89.6479V17.9563C89.6479 17.4521 89.7591 17.0083 89.981 16.625C90.2029 16.2214 90.5052 15.9188 90.8885 15.7172C91.2719 15.4953 91.7156 15.3844 92.2199 15.3844C92.946 15.3844 93.5415 15.6265 94.0052 16.1105C94.4895 16.5745 94.7314 17.1897 94.7314 17.9563Z" fill="#35293B"/>
<path fill-rule="evenodd" clip-rule="evenodd" d="M43.2948 17.5328V26.3379H38.5444V4.97559H47.2586C48.6709 4.97559 49.9115 5.24795 50.9805 5.79242C52.0494 6.3169 52.8867 7.05329 53.4919 8.00131C54.0971 8.94933 54.3995 10.0388 54.3995 11.2692C54.3995 12.5198 54.0971 13.6193 53.4919 14.5673C52.8867 15.4953 52.0397 16.2214 50.9502 16.7459C50.3423 17.0385 49.6756 17.2496 48.9484 17.3789L55.7918 26.3379H50.1636L43.792 17.5328H43.2948ZM43.2948 14.0228H46.6841C47.6321 14.0228 48.3583 13.7807 48.8625 13.2964C49.3867 12.8124 49.6491 12.1567 49.6491 11.3296C49.6491 10.5633 49.397 9.92786 48.8928 9.42361C48.3885 8.9191 47.6624 8.66698 46.7144 8.66698H43.2948V14.0228Z" fill="#35293B"/>
<path fill-rule="evenodd" clip-rule="evenodd" d="M58.847 25.7025C60.0979 26.3479 61.5199 26.6707 63.1131 26.6707C64.344 26.6707 65.4734 26.4588 66.5024 26.0353C67.5309 25.6115 68.4087 24.9761 69.1348 24.129L66.5931 21.5873C66.1493 22.0915 65.6348 22.4748 65.0496 22.7372C64.4649 22.9791 63.8095 23.1003 63.0828 23.1003C62.2962 23.1003 61.6106 22.9388 61.0254 22.616C60.4607 22.2732 60.0169 21.7992 59.694 21.194C59.5925 20.984 59.5083 20.7604 59.4408 20.5232L69.9819 20.4981C70.0629 20.1148 70.1131 19.7819 70.133 19.4996C70.1471 19.394 70.1584 19.2912 70.1676 19.1905C70.1725 19.1406 70.1762 19.0914 70.1795 19.0428C70.1843 18.9697 70.1881 18.8979 70.1903 18.8274L70.1924 18.7497L70.1935 18.6522C70.1935 17.2199 69.8712 15.9491 69.2255 14.8396C68.6003 13.7302 67.7328 12.8629 66.6233 12.2374C65.5139 11.6123 64.2328 11.2994 62.7805 11.2994C61.2877 11.2994 59.9462 11.6322 58.7563 12.2979C57.5658 12.9636 56.6178 13.8816 55.9117 15.0515C55.226 16.2012 54.8832 17.5126 54.8832 18.9851C54.8832 20.4576 55.2363 21.7789 55.9419 22.9488C56.6481 24.1187 57.6166 25.0368 58.847 25.7025ZM59.4424 17.3452C59.4651 17.2664 59.4894 17.1892 59.5153 17.1136C59.5596 16.9862 59.6087 16.8634 59.6638 16.7459C59.9667 16.1407 60.3802 15.6767 60.9044 15.3541C61.4492 15.011 62.0846 14.8396 62.8107 14.8396C63.4964 14.8396 64.0713 14.9911 64.5356 15.2937L64.5977 15.3309L64.6598 15.3706C64.7122 15.4054 64.7629 15.4421 64.812 15.4805C64.8601 15.518 64.9071 15.5574 64.9524 15.5984C65.2337 15.8533 65.4577 16.1753 65.6246 16.5645C65.7261 16.7924 65.8081 17.0464 65.8707 17.3268L59.4424 17.3452Z" fill="#35293B"/>
<path d="M78.3289 26.6707C76.8156 26.6707 75.4438 26.3379 74.2134 25.6722C72.983 25.0066 72.0151 24.0885 71.3089 22.9186C70.6027 21.7487 70.2497 20.4373 70.2497 18.9851C70.2497 17.5126 70.6027 16.2012 71.3089 15.0515C72.035 13.8816 73.0133 12.9636 74.2437 12.2979C75.4746 11.6322 76.8561 11.2994 78.3894 11.2994C79.5387 11.2994 80.5877 11.5013 81.5363 11.9046C82.0195 12.096 82.4751 12.3376 82.9032 12.6294C83.3325 12.9223 83.7341 13.2656 84.1077 13.6597L81.1427 16.625C80.7999 16.2417 80.3961 15.9593 79.9323 15.7777C79.7228 15.6921 79.4983 15.6268 79.2575 15.5814C79.1473 15.5606 79.0345 15.5442 78.9184 15.532C78.7986 15.5193 78.6749 15.5112 78.5481 15.5077C78.4957 15.5061 78.4428 15.5053 78.3894 15.5053C78.2258 15.5053 78.0665 15.5145 77.9116 15.5326L77.8284 15.5434L77.7766 15.5509C77.7226 15.5593 77.6692 15.569 77.6163 15.5795C77.2535 15.6524 76.916 15.779 76.604 15.9593C76.0997 16.2417 75.6965 16.645 75.3936 17.1695C75.1112 17.674 74.9698 18.2689 74.9698 18.9548C74.9698 19.6407 75.1112 20.2459 75.3936 20.7702C75.6965 21.2947 76.11 21.7082 76.6342 22.0108C77.1584 22.3134 77.7437 22.4648 78.3894 22.4648C78.9946 22.4648 79.529 22.3639 79.9928 22.1622C80.4771 21.9403 80.8906 21.6377 81.2334 21.2544L84.1687 24.2197C83.4021 25.0265 82.5345 25.6417 81.5665 26.0655C80.598 26.4688 79.5188 26.6707 78.3289 26.6707Z" fill="#35293B"/>
<path fill-rule="evenodd" clip-rule="evenodd" d="M107.266 26.6405C105.915 26.6405 104.704 26.3077 103.636 25.6417C102.587 24.9761 101.749 24.0685 101.124 22.9186C100.519 21.7689 100.216 20.4576 100.216 18.9851C100.216 17.5126 100.519 16.2012 101.124 15.0515C101.749 13.9016 102.587 12.9941 103.636 12.3281C104.704 11.6625 105.915 11.3296 107.266 11.3296C108.255 11.3296 109.142 11.5213 109.929 11.9046C110.458 12.1559 110.922 12.4723 111.321 12.8534V11.6322H115.859V26.3379H111.321V25.1464C111.048 25.4042 110.742 25.6325 110.402 25.8315C110.34 25.8679 110.277 25.9036 110.212 25.9381C110.13 25.9821 110.045 26.0245 109.959 26.0655C109.153 26.4488 108.255 26.6405 107.266 26.6405ZM108.204 22.4648C109.193 22.4648 109.989 22.142 110.595 21.4966C111.2 20.8309 111.503 19.9936 111.503 18.9851C111.503 18.642 111.467 18.3191 111.396 18.0165C111.326 17.7139 111.22 17.4316 111.079 17.1695C110.816 16.645 110.433 16.2417 109.929 15.9593C109.657 15.789 109.359 15.6667 109.035 15.5922C108.784 15.5342 108.517 15.5053 108.235 15.5053C107.912 15.5053 107.607 15.5431 107.32 15.6187C107.145 15.6648 106.976 15.725 106.814 15.7993C106.71 15.8468 106.609 15.9002 106.51 15.9593C106.026 16.2417 105.633 16.645 105.33 17.1695C105.047 17.694 104.906 18.2992 104.906 18.9851C104.906 19.6507 105.047 20.2459 105.33 20.7702C105.612 21.2947 106.006 21.7082 106.51 22.0108C107.014 22.3134 107.579 22.4648 108.204 22.4648Z" fill="#35293B"/>
<path d="M122.538 11.6322H117.909V26.3379H122.538V18.2589C122.538 17.3106 122.76 16.6048 123.204 16.1407C123.668 15.6567 124.283 15.4146 125.05 15.4146C125.433 15.4146 125.776 15.4751 126.079 15.5963C126.381 15.7172 126.633 15.8886 126.835 16.1105L129.588 12.6307C129.185 12.187 128.711 11.8644 128.166 11.6625C127.642 11.4406 127.027 11.3296 126.321 11.3296C124.707 11.3296 123.446 11.8039 122.538 12.7519V11.6322Z" fill="#35293B"/>
<path fill-rule="evenodd" clip-rule="evenodd" d="M135.431 32.9341C133.817 32.9341 132.395 32.6517 131.165 32.0868C129.954 31.5423 128.996 30.7657 128.29 29.7569L131.134 26.9126C131.659 27.538 132.244 28.012 132.889 28.3349C133.555 28.6575 134.352 28.8189 135.28 28.8189C136.43 28.8189 137.327 28.5365 137.973 27.9718C138.638 27.4068 138.971 26.61 138.971 25.5813V24.6524C138.656 24.9045 138.303 25.1232 137.912 25.3089C137.105 25.6922 136.208 25.8839 135.219 25.8839C133.867 25.8839 132.667 25.5613 131.618 24.9156C130.569 24.2702 129.742 23.3926 129.137 22.2832C128.532 21.1737 128.23 19.9433 128.23 18.5918C128.23 17.2199 128.532 15.9896 129.137 14.9001C129.742 13.7907 130.569 12.9234 131.618 12.2979C132.667 11.6525 133.867 11.3296 135.219 11.3296C136.228 11.3296 137.126 11.5213 137.912 11.9046C137.985 11.937 138.055 11.9707 138.125 12.0058C138.468 12.1791 138.781 12.384 139.062 12.6205V11.6322H143.601V25.4603C143.601 26.9733 143.248 28.2844 142.542 29.3939C141.835 30.5033 140.867 31.3706 139.637 31.9961C138.406 32.6215 137.005 32.9341 135.431 32.9341ZM136.097 21.7689C136.742 21.7689 137.297 21.6275 137.761 21.3451C137.88 21.2758 137.992 21.2007 138.096 21.1203C138.416 20.8738 138.667 20.5755 138.85 20.2257C138.928 20.0816 138.995 19.9323 139.049 19.7776C139.12 19.577 139.172 19.3673 139.204 19.1487C139.231 18.9691 139.244 18.7834 139.244 18.5918C139.244 17.9866 139.112 17.4418 138.85 16.9578C138.608 16.4736 138.245 16.0903 137.761 15.8079C137.297 15.5255 136.742 15.3844 136.097 15.3844C135.906 15.3844 135.722 15.3976 135.545 15.4238L135.452 15.4389L135.37 15.454C135.194 15.4894 135.025 15.5382 134.864 15.6006C134.773 15.6354 134.684 15.6746 134.598 15.7177C134.542 15.7461 134.487 15.7761 134.433 15.8079C133.948 16.0903 133.575 16.4736 133.313 16.9578C133.176 17.21 133.075 17.4785 133.01 17.7636C132.95 18.0257 132.919 18.3019 132.919 18.5918C132.919 19.1565 133.051 19.691 133.313 20.1955C133.575 20.6795 133.938 21.0628 134.402 21.3451C134.662 21.4968 134.946 21.608 135.253 21.6782C135.517 21.7387 135.798 21.7689 136.097 21.7689Z" fill="#35293B"/>
<path fill-rule="evenodd" clip-rule="evenodd" d="M148.654 25.7025C149.904 26.3479 151.326 26.6707 152.92 26.6707C154.15 26.6707 155.28 26.4588 156.308 26.0353C157.337 25.6115 158.215 24.9761 158.941 24.129L156.399 21.5873C155.955 22.0915 155.441 22.4748 154.856 22.7372C154.271 22.9791 153.616 23.1003 152.889 23.1003C152.103 23.1003 151.417 22.9388 150.832 22.616C150.429 22.3714 150.087 22.0599 149.808 21.6815C149.763 21.6213 149.72 21.5592 149.679 21.4955C149.616 21.3991 149.556 21.2984 149.501 21.194C149.399 20.984 149.314 20.7604 149.247 20.5232L159.788 20.4981C159.828 20.3088 159.861 20.1318 159.886 19.9671C159.912 19.7981 159.929 19.6424 159.94 19.4996C159.954 19.3929 159.966 19.2887 159.975 19.1873C159.991 19.0005 160 18.822 160 18.6522C160 17.2199 159.677 15.9491 159.032 14.8396C158.406 13.7302 157.539 12.8629 156.43 12.2374C155.32 11.6123 154.039 11.2994 152.587 11.2994C151.094 11.2994 149.753 11.6322 148.562 12.2979C147.372 12.9636 146.424 13.8816 145.718 15.0515C145.033 16.2012 144.689 17.5126 144.689 18.9851C144.689 20.4576 145.042 21.7789 145.748 22.9488C146.455 24.1187 147.423 25.0368 148.654 25.7025ZM149.249 17.3452C149.309 17.133 149.383 16.933 149.47 16.7459C149.643 16.4004 149.852 16.1011 150.097 15.8479C150.182 15.759 150.273 15.6759 150.368 15.5984C150.477 15.5096 150.591 15.4281 150.711 15.3541C151.256 15.011 151.891 14.8396 152.617 14.8396C153.303 14.8396 153.878 14.9911 154.342 15.2937C154.527 15.4016 154.694 15.5301 154.844 15.6794C155.086 15.9205 155.282 16.2155 155.431 16.5645C155.532 16.7924 155.614 17.0464 155.677 17.3268L149.249 17.3452Z" fill="#35293B"/>
</svg>
