<svg width="51" height="53" viewBox="0 0 51 53" fill="none" xmlns="http://www.w3.org/2000/svg">
<g opacity="0.3">
<path d="M43.1173 31.0596C44.224 31.0683 44.4138 28.5948 43.9602 20.5181C43.4743 11.9694 43.0428 10.1302 41.748 10.5612C39.973 11.1745 41.3322 31.0008 43.1173 31.0596Z" fill="#342EAD"/>
<path d="M6.15287 38.2572C6.05187 41.4205 6.59816 41.793 13.6943 43.4174C21.0211 45.1029 22.4461 45.1507 23.0162 43.8078C24.0398 41.3696 22.3063 40.3033 13.394 37.7679C6.8173 35.9011 6.22741 35.9223 6.15287 38.2572Z" fill="#342EAD"/>
<path d="M15.2628 18.1343C15.1567 20.4566 15.6072 21.2725 18.3688 23.8335C26.5937 31.3974 31.7838 37.4906 31.8965 32.9748C31.9554 31.1308 30.592 29.5578 21.307 20.3718C16.147 15.3196 15.4257 15.0264 15.2628 18.1343Z" fill="#342EAD"/>
</g>
</svg>
