<svg width="51" height="57" viewBox="0 0 51 57" fill="none" xmlns="http://www.w3.org/2000/svg">
<path fill-rule="evenodd" clip-rule="evenodd" d="M13.903 0.744719C5.24794 3.07861 -0.262659 13.8883 0.368044 27.2225C0.573926 31.4401 3.70723 31.7448 7.91664 29.3494C12.3715 26.7678 17.9892 21.1311 22.576 13.7514C27.5063 5.75121 22.6 -1.6268 13.903 0.744719ZM17.2598 4.62709C20.9746 7.52929 19.2774 12.0353 11.1908 20.4103L6.48211 25.2998L6.91922 21.4405C8.32045 9.22718 13.1195 1.37941 17.2598 4.62709ZM36.3563 9.51659C30.3389 12.0459 20.0248 23.7741 19.2934 28.9379C18.8153 32.3141 21.0408 32.325 32.4659 28.9927C41.4921 26.3602 45.8729 24.8157 48.0738 22.4222C55.3576 14.5606 46.2172 5.37125 36.3563 9.51659ZM44.3003 13.7492C45.7639 17.0796 40.1171 23.4357 34.2178 25.1307C29.3829 26.5283 26.1033 27.2561 26.5023 26.7592C26.7172 26.5315 28.0704 24.969 29.5126 23.2918C36.3257 15.4023 43.1147 11.0361 44.3003 13.7492ZM19.3768 37.1131C11.2332 38.1556 7.52891 43.945 16.5454 48.0806C18.1211 48.8143 21.4471 50.8524 23.9377 52.6013C31.1979 57.7948 35.1335 58.1067 39.0948 53.8544C42.1494 50.5899 42.2739 45.07 40.3855 40.8738C35.7507 30.548 23.7676 36.5308 19.3768 37.1131ZM37.119 42.2833C39.0199 43.5569 38.5762 46.174 36.0266 48.7072C32.5874 52.1093 30.1534 51.7657 23.7894 46.9454L19.1703 43.4693C19.9892 43.3573 22.9231 43.0094 27.8769 42.0595C32.4271 41.1258 35.5161 41.2276 37.119 42.2833Z" fill="white"/>
</svg>
