<svg width="147" height="141" viewBox="0 0 147 141" fill="none" xmlns="http://www.w3.org/2000/svg">
<g opacity="0.2">
<path d="M72.835 25.0989C80.9573 28.9894 81.0515 28.9942 81.6352 27.9676C82.4483 26.5377 80.8364 21.3514 79.5387 21.2443C79.4812 21.2601 77.6013 20.3853 75.3706 19.3595C61.7867 13.0429 60.9232 12.9402 62.1835 17.6353C62.927 20.3384 63.2203 20.5054 72.835 25.0989Z" fill="#342EAD"/>
<path d="M71.9229 38.9904C71.708 41.2456 74.7985 43.1488 87.7533 48.8651C91.759 50.6091 92.9704 49.5023 91.0738 45.7555C89.8445 43.3098 88.5295 42.4654 81.7229 39.7596C74.1987 36.6944 72.1478 36.5469 71.9229 38.9904Z" fill="#342EAD"/>
<path d="M102.111 72.166C103.675 69.4161 99.9953 66.1595 91.5445 62.7615C85.2196 60.2326 83.1585 60.2737 83.3002 62.9257C83.58 66.5295 100.548 74.9158 102.111 72.166Z" fill="#342EAD"/>
<path d="M109.996 43.3658C112.742 42.8891 111.433 37.6812 108.176 36.0717C107.605 35.7956 105.065 34.5456 102.431 33.2905C93.6648 29.0823 91.9327 28.971 92.6366 32.7675C93.1126 35.1729 107.288 43.8634 109.996 43.3658Z" fill="#342EAD"/>
<path d="M72.7962 58.02C73.6718 56.4801 70.5078 52.061 67.7903 50.9525C67.5861 50.8849 66.0362 50.1977 64.3187 49.4638C55.4589 45.5906 51.6774 46.0119 54.0729 50.6732C55.4439 53.2965 71.8164 59.7432 72.7962 58.02Z" fill="#342EAD"/>
<path d="M124.029 66.0454C125.404 63.6255 121.86 59.9606 115.655 57.3058C108.691 54.365 105.818 54.0418 105.943 56.2963C106.153 59.0842 122.861 68.0986 124.029 66.0454Z" fill="#342EAD"/>
<path d="M66.6609 75.9768C69.4258 77.2578 73.4582 79.2108 75.5948 80.2316C79.8838 82.3307 80.8199 82.1352 79.5898 79.3495C78.5437 77.008 67.1446 69.7504 62.6902 68.6247C55.6816 66.8715 58.5177 72.123 66.6609 75.9768Z" fill="#342EAD"/>
<path d="M38.8074 56.0167C30.6765 52.9946 27.2084 53.2059 29.0259 56.6652C30.7276 59.8161 48.2093 66.36 48.0259 63.7813C47.8102 60.7475 44.9749 58.3105 38.8074 56.0167Z" fill="#342EAD"/>
<path d="M54.5384 33.8116C55.1638 32.7116 54.4944 30.3904 53.3362 29.4408C51.4181 27.865 38.3189 20.611 36.4396 20.0761C31.7337 18.7104 33.0142 25.503 35.8524 26.8257C36.0566 26.8933 53.6628 35.3515 54.5384 33.8116Z" fill="#342EAD"/>
<path d="M86.9937 121.452C84.4862 120.657 83.6846 122.578 85.2038 125.965C85.7085 127.125 99.1716 133.228 100.458 132.843C103.888 131.931 94.2022 123.707 86.9937 121.452Z" fill="#342EAD"/>
<path d="M134.228 89.7483C133.554 87.5212 121.786 79.0348 120.406 79.7544C119.063 80.495 118.594 83.9645 125.791 87.8621C133.333 92.005 135.092 92.6656 134.228 89.7483Z" fill="#342EAD"/>
<path d="M114.142 95.5509C113.783 94.474 100.395 86.6187 95.7878 84.8238C91.8453 83.3099 90.1673 83.9572 91.8518 86.3705C92.8856 87.8802 95.9639 88.9513 110.999 96.0443C114.114 97.4762 114.742 97.3963 114.142 95.5509Z" fill="#342EAD"/>
<path d="M90.1597 102.487C89.3049 101.515 82.9144 97.7365 79.647 96.3153C72.2846 93.051 69.6269 92.9466 70.4336 95.8797C70.9398 97.72 72.2596 98.4707 81.2705 101.993C85.0821 103.481 88.7578 105.037 89.4178 105.413C91.251 106.455 91.8169 104.351 90.1597 102.487Z" fill="#342EAD"/>
<path d="M58.0395 88.4942C56.1214 86.9184 45.2479 80.7843 43.2638 80.0928C37.882 78.2943 40.7061 85.1883 42.9469 86.0257C47.3919 87.6798 56.2777 91.4222 58.0009 92.402C61.1174 94.174 61.1524 91.0405 58.0395 88.4942Z" fill="#342EAD"/>
<path d="M66.5218 113.597C65.9847 111.981 55.3126 104.555 52.2241 103.672C47.9998 102.483 48.5658 107.802 52.849 109.655C56.3573 111.165 61.143 113.158 63.9503 114.706C66.2968 116.04 67.2062 115.635 66.5218 113.597Z" fill="#342EAD"/>
</g>
</svg>
