<svg width="40" height="46" viewBox="0 0 40 46" fill="none" xmlns="http://www.w3.org/2000/svg">
<g opacity="0.8">
<path d="M17.0057 16.5435C17.9787 15.7897 23.4058 12.1031 24.3926 11.5412C25.2286 11.0753 25.4205 10.8973 25.5986 10.4313C26.0783 9.15668 26.8183 4.99033 27.1062 1.92045C27.2569 0.399217 26.2976 -0.42299 25.1052 0.221137C24.8449 0.358185 24.1048 0.728215 23.4607 1.04343C22.8165 1.34493 20.9527 2.52355 19.3081 3.64734C15.6215 6.18274 15.7311 4.92189 15.1007 11.2536C14.9637 12.72 13.881 18.9693 17.0057 16.5435ZM17.5676 7.97801C17.5676 7.53946 18.0336 7.15578 20.9938 5.15487C22.4602 4.15442 23.8855 3.16759 24.1459 2.94831C24.79 2.42753 24.8174 2.44129 24.6804 3.27728C23.954 7.70394 23.4607 8.81409 22.981 10.1161C19.9385 11.6647 16.5123 14.2411 16.389 14.1726C16.3342 14.0903 17.5676 9.11551 17.5676 7.97801Z" fill="#342EAD"/>
<path d="M15.7588 31.0573C16.7866 31.0573 23.4472 25.0957 24.0776 24.6434C25.3796 23.7115 26.9967 16.3383 25.9963 15.8723C25.5851 15.6805 25.6674 15.6668 24.6806 15.9134C24.2558 16.0231 22.4878 16.818 20.7473 17.6951C16.7866 19.6823 17.1978 19.0107 16.7318 20.1894C15.5121 23.2592 14.7309 29.3029 14.4157 29.81C14.1005 30.2623 14.9639 31.0573 15.7588 31.0573ZM16.9374 26.5347C17.4719 24.849 18.0338 22.4918 18.4312 20.8746C23.4335 18.6133 24.2832 17.969 24.2832 18.2568C24.2832 18.5995 23.7487 19.3259 23.1183 23.6841C21.9396 24.4104 19.4728 25.863 17.9241 27.0279C16.2933 28.2476 16.3892 28.2889 16.9374 26.5347Z" fill="#342EAD"/>
<path d="M11.5788 21.861C10.4413 19.9286 8.4815 21.9708 8.20741 22.1763C5.15126 24.4788 3.8904 25.9452 2.27323 27.3568C1.43724 28.0968 1.90322 27.8913 0.642372 32.359C-0.755519 37.3202 0.025656 38.3754 4.00005 35.3741C6.46689 33.5102 6.60394 33.5375 9.3175 31.5914C10.4824 30.7691 10.3591 29.9331 10.9895 27.6855C11.7432 25.0131 11.9899 22.5462 11.5788 21.861ZM8.04295 29.851C7.8922 30.7967 6.57653 30.7145 4.08227 32.4961C2.27323 33.798 3.13665 33.3045 3.58891 29.7687L3.75337 28.4806C8.41298 24.7666 9.48195 23.4372 9.48195 23.9306C9.48195 23.9306 8.15259 29.1658 8.04295 29.851Z" fill="#342EAD"/>
<path d="M37.5218 5.67587C35.425 6.96412 29.9842 11.0482 29.4771 11.4868C29.0523 11.8431 28.6411 12.1446 28.5726 12.1446C28.0655 12.1446 28.4492 14.077 28.0655 17.3113C27.4762 22.3273 27.7914 23.4646 32.7937 20.4907C33.6982 19.9562 35.055 19.2985 35.8361 19.0107C38.2071 18.1336 38.0426 18.298 38.1385 16.9413C38.1797 16.2971 38.4264 14.9815 38.6593 13.9947C39.2212 11.7197 39.6598 9.18426 39.7968 7.60821C40.0024 5.37432 38.8786 4.83987 37.5218 5.67587ZM37.3026 9.70513C36.8914 11.8431 35.8224 16.1737 35.7676 16.6533C35.6991 17.2152 33.6708 17.6812 31.0257 19.1887C29.6553 19.9699 29.7649 20.0934 30.0527 18.1062C30.3405 16.1738 30.5187 14.2688 30.642 12.9669C30.642 12.9669 35.8087 9.3351 36.4117 8.88285C37.7411 7.8824 37.6589 7.82758 37.3026 9.70513Z" fill="#342EAD"/>
<path d="M32.3688 22.6141C29.299 24.5602 27.3803 25.8484 27.2158 25.8484C26.7225 25.8484 25.1601 32.9475 25.3246 34.4139C25.3794 34.8662 25.5027 36.127 25.5027 36.2093C25.6535 37.3468 28.7919 35.8392 33.2597 32.4541C34.5068 31.5085 34.6713 31.4263 35.192 31.4537C36.028 31.4948 36.261 31.0425 36.5625 28.8635C37.563 21.4492 36.5625 19.9553 32.3688 22.6141ZM34.0957 30.1791C34.0819 30.1928 33.2185 30.6451 32.1633 31.207C28.3259 33.2216 27.2158 34.2906 27.3392 33.7698C27.4077 33.4957 27.9833 29.4391 28.1889 27.8219C28.2437 27.4245 28.3396 27.2189 28.5589 27.1093C28.7234 27.027 34.6164 23.5734 34.6164 23.5734C34.6301 23.5871 34.356 30.1791 34.0957 30.1791Z" fill="#342EAD"/>
<path d="M22.0902 29.0148C21.542 29.3575 18.7188 31.3858 17.0879 32.6192C14.6759 34.442 14.3332 34.9629 13.5384 38.0465C13.278 39.0606 12.9079 40.39 12.7161 40.993C11.0715 46.2145 12.8805 46.4474 14.0454 45.6662C14.8677 45.1043 19.7604 41.0204 20.8293 40.0062C21.6242 39.2388 21.8983 39.0606 22.1587 39.1154C22.9947 39.2799 23.2825 38.5671 23.8033 34.9764C24.2281 32.0299 24.6256 27.4388 22.0902 29.0148ZM22.145 31.7834C22.008 32.7016 21.2679 37.1008 21.2679 37.5257C21.2679 37.7587 14.5114 42.4594 14.6211 42.0483C15.6352 38.0465 15.4707 35.4425 15.923 35.4425C16.156 35.4425 16.7316 35.0588 20.0893 32.6605C22.4602 30.9611 22.2546 31.0433 22.145 31.7834Z" fill="#342EAD"/>
<path d="M3.39707 22.7924C3.91786 22.5183 5.32947 21.2162 7.22069 19.6949C11.9763 15.8439 12.1818 15.5699 12.8945 12.0067C13.6757 8.05963 14.0183 3.29026 10.8936 5.82566C9.98907 6.56572 4.82239 10.499 4.06862 11.0198C3.01335 11.7598 1.86213 20.0787 1.45099 21.8877C1.30023 22.5867 2.60219 23.1898 3.39707 22.7924ZM5.41167 12.7604C10.4413 8.96414 11.1266 8.41595 11.1266 8.64893C11.1266 8.81339 10.1946 12.9934 10.1124 13.8157C10.0302 14.7202 7.19328 16.6799 3.83561 19.5168C3.39706 19.8731 3.89043 19.2976 5.41167 12.7604Z" fill="#342EAD"/>
</g>
</svg>
