<svg width="162" height="38" viewBox="0 0 162 38" fill="none" xmlns="http://www.w3.org/2000/svg">
<path d="M63.0821 34.5V12.1H72.7461C74.1541 12.1 75.4021 12.42 76.4901 13.06C77.5994 13.7 78.4741 14.5747 79.1141 15.684C79.7754 16.7933 80.1061 18.0413 80.1061 19.428C80.1061 20.8787 79.7754 22.18 79.1141 23.332C78.4741 24.4627 77.5994 25.3587 76.4901 26.02C75.4021 26.6813 74.1541 27.012 72.7461 27.012H68.5221V34.5H63.0821ZM68.4261 22.244H71.9781C72.4474 22.244 72.8741 22.1267 73.2581 21.892C73.6421 21.6573 73.9514 21.3373 74.1861 20.932C74.4208 20.5267 74.5381 20.0573 74.5381 19.524C74.5381 18.9693 74.4208 18.5 74.1861 18.116C73.9514 17.732 73.6421 17.4333 73.2581 17.22C72.8741 17.0067 72.4474 16.9 71.9781 16.9H68.4261V22.244ZM91.4131 34.82C89.6424 34.82 88.0638 34.436 86.6771 33.668C85.3118 32.9 84.2238 31.8547 83.4131 30.532C82.6238 29.2093 82.2291 27.6947 82.2291 25.988C82.2291 24.2813 82.6238 22.7667 83.4131 21.444C84.2238 20.1213 85.3118 19.076 86.6771 18.308C88.0638 17.54 89.6424 17.156 91.4131 17.156C93.1838 17.156 94.7518 17.54 96.1171 18.308C97.5038 19.076 98.5918 20.1213 99.3811 21.444C100.17 22.7667 100.565 24.2813 100.565 25.988C100.565 27.6947 100.17 29.2093 99.3811 30.532C98.5918 31.8547 97.5038 32.9 96.1171 33.668C94.7518 34.436 93.1838 34.82 91.4131 34.82ZM91.4131 30.404C92.1811 30.404 92.8638 30.212 93.4611 29.828C94.0584 29.444 94.5278 28.9213 94.8691 28.26C95.2104 27.5987 95.3704 26.8413 95.3491 25.988C95.3704 25.1347 95.2104 24.3773 94.8691 23.716C94.5278 23.0333 94.0584 22.5 93.4611 22.116C92.8638 21.732 92.1811 21.54 91.4131 21.54C90.6451 21.54 89.9518 21.732 89.3331 22.116C88.7358 22.5 88.2664 23.0333 87.9251 23.716C87.5838 24.3773 87.4238 25.1347 87.4451 25.988C87.4238 26.8413 87.5838 27.5987 87.9251 28.26C88.2664 28.9213 88.7358 29.444 89.3331 29.828C89.9518 30.212 90.6451 30.404 91.4131 30.404ZM103.913 34.5V17.508H108.777L109.001 23.044L108.041 21.988C108.297 21.0707 108.713 20.2493 109.289 19.524C109.886 18.7987 110.58 18.2227 111.369 17.796C112.158 17.3693 113.001 17.156 113.897 17.156C114.281 17.156 114.633 17.188 114.953 17.252C115.294 17.316 115.604 17.3907 115.881 17.476L114.473 23.14C114.238 22.9907 113.918 22.8733 113.513 22.788C113.129 22.6813 112.724 22.628 112.297 22.628C111.828 22.628 111.39 22.7133 110.985 22.884C110.58 23.0333 110.238 23.2573 109.961 23.556C109.684 23.8547 109.46 24.2067 109.289 24.612C109.14 25.0173 109.065 25.476 109.065 25.988V34.5H103.913ZM120.509 34.5V13.22H125.629V34.5H120.509ZM117.501 21.988V17.508H128.925V21.988H117.501Z" fill="#12103E"/>
<path d="M131.819 34.5V17.508H136.683L136.843 20.58L136.171 20.612C136.427 20.0573 136.747 19.5667 137.131 19.14C137.536 18.7133 137.984 18.3613 138.475 18.084C138.987 17.7853 139.509 17.5613 140.043 17.412C140.597 17.2627 141.152 17.188 141.707 17.188C142.539 17.188 143.296 17.316 143.979 17.572C144.661 17.828 145.259 18.244 145.771 18.82C146.283 19.3747 146.688 20.132 146.987 21.092L146.187 21.028L146.443 20.516C146.72 20.004 147.072 19.5453 147.499 19.14C147.947 18.7133 148.437 18.3613 148.971 18.084C149.504 17.7853 150.059 17.5613 150.635 17.412C151.211 17.2627 151.765 17.188 152.299 17.188C153.643 17.188 154.763 17.4547 155.659 17.988C156.555 18.5 157.227 19.2787 157.675 20.324C158.144 21.3693 158.379 22.6387 158.379 24.132V34.5H153.227V24.548C153.227 23.8653 153.131 23.3 152.939 22.852C152.747 22.404 152.459 22.0733 152.075 21.86C151.712 21.6253 151.253 21.508 150.699 21.508C150.251 21.508 149.835 21.5827 149.451 21.732C149.088 21.8813 148.768 22.084 148.491 22.34C148.235 22.596 148.032 22.8947 147.883 23.236C147.733 23.5773 147.659 23.9613 147.659 24.388V34.5H142.507V24.516C142.507 23.876 142.411 23.332 142.219 22.884C142.027 22.436 141.739 22.0947 141.355 21.86C140.971 21.6253 140.523 21.508 140.011 21.508C139.563 21.508 139.147 21.5827 138.763 21.732C138.4 21.8813 138.08 22.084 137.803 22.34C137.547 22.596 137.344 22.8947 137.195 23.236C137.045 23.5773 136.971 23.9507 136.971 24.356V34.5H131.819Z" fill="#FF6D5A"/>
<path fill-rule="evenodd" clip-rule="evenodd" d="M32.4008 1.49237C32.7861 0.82774 33.7458 0.82774 34.1311 1.49237L52.3955 32.9985C52.7819 33.6651 52.3009 34.5 51.5303 34.5H48.2659H44.2659H39.816H34.2659H28.4561C27.6978 34.5 27.2154 33.6889 27.5775 33.0225L32.4167 24.117C32.7953 23.4203 33.7954 23.4203 34.174 24.117L36.8151 28.9775C36.9901 29.2995 37.3272 29.5 37.6938 29.5H39.705C40.4718 29.5 40.9533 28.6725 40.5744 28.0058L34.1353 16.6781C33.7519 16.0037 32.7799 16.0037 32.3965 16.6781L22.5534 33.9942C22.3757 34.3069 22.0437 34.5 21.6841 34.5H15.0015C14.2309 34.5 13.7499 33.6651 14.1364 32.9985L32.4008 1.49237ZM18.3296 1.6152L0.136357 32.9985C-0.250115 33.6651 0.230912 34.5 1.0015 34.5H7.68407C8.04374 34.5 8.3757 34.3069 8.55343 33.9942L23.0039 8.57286C23.1678 8.28458 23.1781 7.93383 23.0314 7.63643L20.0916 1.67447C19.7385 0.958409 18.73 0.924483 18.3296 1.6152Z" fill="#FF6D5A"/>
</svg>
