<svg width="162" height="38" viewBox="0 0 162 38" fill="none" xmlns="http://www.w3.org/2000/svg">
<path d="M63.0816 34.5V12.1H72.7456C74.1536 12.1 75.4016 12.42 76.4896 13.06C77.599 13.7 78.4736 14.5747 79.1136 15.684C79.775 16.7933 80.1056 18.0413 80.1056 19.428C80.1056 20.8787 79.775 22.18 79.1136 23.332C78.4736 24.4627 77.599 25.3587 76.4896 26.02C75.4016 26.6813 74.1536 27.012 72.7456 27.012H68.5216V34.5H63.0816ZM68.4256 22.244H71.9776C72.447 22.244 72.8736 22.1267 73.2576 21.892C73.6416 21.6573 73.951 21.3373 74.1856 20.932C74.4203 20.5267 74.5376 20.0573 74.5376 19.524C74.5376 18.9693 74.4203 18.5 74.1856 18.116C73.951 17.732 73.6416 17.4333 73.2576 17.22C72.8736 17.0067 72.447 16.9 71.9776 16.9H68.4256V22.244ZM91.4126 34.82C89.642 34.82 88.0633 34.436 86.6766 33.668C85.3113 32.9 84.2233 31.8547 83.4126 30.532C82.6233 29.2093 82.2286 27.6947 82.2286 25.988C82.2286 24.2813 82.6233 22.7667 83.4126 21.444C84.2233 20.1213 85.3113 19.076 86.6766 18.308C88.0633 17.54 89.642 17.156 91.4126 17.156C93.1833 17.156 94.7513 17.54 96.1166 18.308C97.5033 19.076 98.5913 20.1213 99.3806 21.444C100.17 22.7667 100.565 24.2813 100.565 25.988C100.565 27.6947 100.17 29.2093 99.3806 30.532C98.5913 31.8547 97.5033 32.9 96.1166 33.668C94.7513 34.436 93.1833 34.82 91.4126 34.82ZM91.4126 30.404C92.1806 30.404 92.8633 30.212 93.4606 29.828C94.058 29.444 94.5273 28.9213 94.8686 28.26C95.21 27.5987 95.37 26.8413 95.3486 25.988C95.37 25.1347 95.21 24.3773 94.8686 23.716C94.5273 23.0333 94.058 22.5 93.4606 22.116C92.8633 21.732 92.1806 21.54 91.4126 21.54C90.6446 21.54 89.9513 21.732 89.3326 22.116C88.7353 22.5 88.266 23.0333 87.9246 23.716C87.5833 24.3773 87.4233 25.1347 87.4446 25.988C87.4233 26.8413 87.5833 27.5987 87.9246 28.26C88.266 28.9213 88.7353 29.444 89.3326 29.828C89.9513 30.212 90.6446 30.404 91.4126 30.404ZM103.913 34.5V17.508H108.777L109.001 23.044L108.041 21.988C108.297 21.0707 108.713 20.2493 109.289 19.524C109.886 18.7987 110.579 18.2227 111.369 17.796C112.158 17.3693 113.001 17.156 113.897 17.156C114.281 17.156 114.633 17.188 114.953 17.252C115.294 17.316 115.603 17.3907 115.881 17.476L114.473 23.14C114.238 22.9907 113.918 22.8733 113.513 22.788C113.129 22.6813 112.723 22.628 112.297 22.628C111.827 22.628 111.39 22.7133 110.985 22.884C110.579 23.0333 110.238 23.2573 109.961 23.556C109.683 23.8547 109.459 24.2067 109.289 24.612C109.139 25.0173 109.065 25.476 109.065 25.988V34.5H103.913ZM120.508 34.5V13.22H125.628V34.5H120.508ZM117.5 21.988V17.508H128.924V21.988H117.5Z" fill="white"/>
<path d="M131.818 34.5V17.508H136.682L136.842 20.58L136.17 20.612C136.426 20.0573 136.746 19.5667 137.13 19.14C137.535 18.7133 137.983 18.3613 138.474 18.084C138.986 17.7853 139.509 17.5613 140.042 17.412C140.597 17.2627 141.151 17.188 141.706 17.188C142.538 17.188 143.295 17.316 143.978 17.572C144.661 17.828 145.258 18.244 145.77 18.82C146.282 19.3747 146.687 20.132 146.986 21.092L146.186 21.028L146.442 20.516C146.719 20.004 147.071 19.5453 147.498 19.14C147.946 18.7133 148.437 18.3613 148.97 18.084C149.503 17.7853 150.058 17.5613 150.634 17.412C151.21 17.2627 151.765 17.188 152.298 17.188C153.642 17.188 154.762 17.4547 155.658 17.988C156.554 18.5 157.226 19.2787 157.674 20.324C158.143 21.3693 158.378 22.6387 158.378 24.132V34.5H153.226V24.548C153.226 23.8653 153.13 23.3 152.938 22.852C152.746 22.404 152.458 22.0733 152.074 21.86C151.711 21.6253 151.253 21.508 150.698 21.508C150.25 21.508 149.834 21.5827 149.45 21.732C149.087 21.8813 148.767 22.084 148.49 22.34C148.234 22.596 148.031 22.8947 147.882 23.236C147.733 23.5773 147.658 23.9613 147.658 24.388V34.5H142.506V24.516C142.506 23.876 142.41 23.332 142.218 22.884C142.026 22.436 141.738 22.0947 141.354 21.86C140.97 21.6253 140.522 21.508 140.01 21.508C139.562 21.508 139.146 21.5827 138.762 21.732C138.399 21.8813 138.079 22.084 137.802 22.34C137.546 22.596 137.343 22.8947 137.194 23.236C137.045 23.5773 136.97 23.9507 136.97 24.356V34.5H131.818Z" fill="#FF6D5A"/>
<path fill-rule="evenodd" clip-rule="evenodd" d="M32.4008 1.49237C32.7861 0.82774 33.7458 0.82774 34.1311 1.49237L52.3955 32.9985C52.7819 33.6651 52.3009 34.5 51.5303 34.5H48.2659H44.2659H39.816H34.2659H28.4561C27.6978 34.5 27.2154 33.6889 27.5775 33.0225L32.4167 24.117C32.7953 23.4203 33.7954 23.4203 34.174 24.117L36.8151 28.9775C36.9901 29.2995 37.3272 29.5 37.6938 29.5H39.705C40.4718 29.5 40.9533 28.6725 40.5744 28.0058L34.1353 16.6781C33.7519 16.0037 32.7799 16.0037 32.3965 16.6781L22.5534 33.9942C22.3757 34.3069 22.0437 34.5 21.6841 34.5H15.0015C14.2309 34.5 13.7499 33.6651 14.1364 32.9985L32.4008 1.49237ZM18.3296 1.6152L0.136357 32.9985C-0.250115 33.6651 0.230912 34.5 1.0015 34.5H7.68407C8.04374 34.5 8.3757 34.3069 8.55343 33.9942L23.0039 8.57286C23.1678 8.28458 23.1781 7.93383 23.0314 7.63643L20.0916 1.67447C19.7385 0.958409 18.73 0.924483 18.3296 1.6152Z" fill="#FF6D5A"/>
</svg>
