<svg width="993" height="567" viewBox="0 0 993 567" fill="none" xmlns="http://www.w3.org/2000/svg">
<path d="M992.489 210.095C984.387 203.598 972.676 205.363 962.328 204.32C955.269 203.598 948.371 201.432 942.195 197.903C934.574 193.571 926.794 186.994 918.211 188.839C913.799 189.801 910.189 192.849 906.018 194.614C897.596 198.224 887.73 196.058 879.307 192.528C871.847 189.4 864.067 185.068 856.125 186.913C852.997 187.635 850.19 189.32 847.382 190.844C833.184 198.865 818.184 205.603 802.703 210.737L992.489 210.095Z" fill="#EBEBFF"/>
<path d="M477.586 65.0793C464.833 54.812 446.464 57.6194 430.18 56.0152C419.111 54.8922 408.282 51.443 398.576 45.9885C386.544 39.1703 374.352 28.8227 360.795 31.7104C353.817 33.2345 348.122 38.0473 341.544 40.8548C328.229 46.4698 312.828 43.1008 299.512 37.566C287.801 32.5928 275.448 25.8548 263.095 28.7425C258.202 29.8655 253.71 32.5126 249.299 34.9992C226.919 47.6729 203.336 58.1809 178.951 66.3627L477.586 65.0793Z" fill="#EBEBFF"/>
<path d="M298.635 238.171C285.881 227.903 267.512 230.711 251.229 229.106C240.16 227.983 229.331 224.534 219.625 219.08C207.593 212.262 195.4 201.914 181.844 204.802C174.866 206.326 169.171 211.139 162.593 213.946C149.278 219.561 133.877 216.192 120.561 210.657C108.85 205.684 96.497 198.946 84.1441 201.834C79.2511 202.957 74.7591 205.604 70.3474 208.091C47.9678 220.764 24.3849 231.272 0 239.454L298.635 238.171Z" fill="#EBEBFF"/>
<path d="M367.836 556.057C367.836 556.057 293.558 444.961 318.344 403.491C343.13 362.02 385.723 479.132 396.231 542.019L367.836 556.057Z" fill="url(#paint0_linear_322_853)"/>
<path d="M389.814 546.993C389.814 546.993 354.921 454.988 379.226 428.196C403.53 401.405 414.921 493.25 412.274 540.816L389.814 546.993Z" fill="url(#paint1_linear_322_853)"/>
<path d="M616.022 564.64C616.022 564.64 665.915 490.041 649.311 462.127C632.707 434.293 603.99 512.982 597.012 555.174L616.022 564.64Z" fill="url(#paint2_linear_322_853)"/>
<path d="M601.259 558.463C601.259 558.463 624.682 496.619 608.398 478.651C592.035 460.603 584.414 522.367 586.179 554.292L601.259 558.463Z" fill="url(#paint3_linear_322_853)"/>
<path d="M891.552 565.923C860.509 556.699 841.017 543.223 818.317 531.752C798.183 521.565 780.055 507.447 759.119 499.025C738.183 490.603 712.515 488.758 694.467 502.394C680.189 513.223 673.05 531.993 657.89 541.618C631.74 558.142 597.97 539.774 573.906 520.362C549.842 500.87 521.045 478.33 491.446 487.234C480.297 490.603 470.912 498.143 461.045 504.399C436.58 519.881 405.618 527.822 378.185 518.517C341.447 506.084 314.335 464.934 275.672 467.822C251.206 469.667 232.196 488.918 215.672 506.966C198.747 525.415 181.741 547.394 164.816 565.843L891.552 565.923Z" fill="url(#paint4_linear_322_853)"/>
<path d="M530.887 18.7065V566.004H558.32V18.7065C558.32 11.1664 552.143 4.98999 544.603 4.98999C537.063 4.98999 530.887 11.0862 530.887 18.7065Z" fill="url(#paint5_linear_322_853)"/>
<path d="M628.024 1.62109L634.2 3.86707L630.51 14.1344L624.334 11.8884L628.024 1.62109Z" fill="url(#paint6_linear_322_853)"/>
<path d="M642.945 244.107L599.229 322.716C596.742 327.128 591.207 328.732 586.795 326.246L455.004 252.93C453.079 251.807 451.555 250.043 450.833 247.957L428.213 182.744C426.368 177.53 429.577 171.915 435.031 170.792L501.288 157.316C503.453 156.915 505.619 157.236 507.544 158.278L639.416 231.674C643.827 234.08 645.351 239.695 642.945 244.107Z" fill="url(#paint7_linear_322_853)"/>
<path d="M498.079 331.299L478.587 387.288C477.464 390.417 479.148 393.866 482.277 394.909L576.207 427.636C577.571 428.117 579.095 428.117 580.458 427.475L622.49 409.989C625.859 408.625 627.223 404.534 625.378 401.406L602.918 362.823C602.196 361.62 601.073 360.657 599.71 360.176L505.699 327.449C502.651 326.486 499.202 328.091 498.079 331.299Z" fill="url(#paint8_linear_322_853)"/>
<path d="M524.069 116.888L513.16 151.219C512.518 153.145 513.641 155.23 515.566 155.792L573.079 174C573.962 174.241 574.844 174.241 575.646 173.84L600.833 162.53C602.839 161.647 603.641 159.161 602.438 157.316L588.16 134.294C587.678 133.572 586.956 133.011 586.154 132.77L528.641 114.562C526.716 113.92 524.711 114.963 524.069 116.888Z" fill="url(#paint9_linear_322_853)"/>
<path d="M476.182 47.503L487.331 112.396C487.973 116.005 491.422 118.492 495.032 117.85L603.801 99.2408C605.406 99.0001 606.85 98.1178 607.892 96.8343L639.336 57.3693C641.823 54.2409 641.021 49.5885 637.571 47.503L595.058 22.0753C593.695 21.2731 592.09 20.9523 590.486 21.1929L481.636 39.8025C477.946 40.4442 475.54 43.8934 476.182 47.503Z" fill="url(#paint10_linear_322_853)"/>
<path d="M423.16 129.001L435.192 123.065L444.978 143.118L432.946 148.974L423.16 129.001Z" fill="url(#paint11_linear_322_853)"/>
<path d="M403.906 149.375L409.842 140.23L425.083 150.017L419.147 159.161L403.906 149.375Z" fill="url(#paint12_linear_322_853)"/>
<path d="M398.935 179.695L398.293 168.786L416.341 167.743L416.983 178.572L398.935 179.695Z" fill="url(#paint13_linear_322_853)"/>
<path d="M644.067 11.8884L649.04 16.1398L641.901 24.482L636.928 20.1504L644.067 11.8884Z" fill="url(#paint14_linear_322_853)"/>
<path d="M659.068 26.9685L661.314 33.1449L650.967 36.8348L648.721 30.6583L659.068 26.9685Z" fill="url(#paint15_linear_322_853)"/>
<path d="M544.602 78.7065C549.343 78.7065 553.185 74.8638 553.185 70.1236C553.185 65.3835 549.343 61.5408 544.602 61.5408C539.862 61.5408 536.02 65.3835 536.02 70.1236C536.02 74.8638 539.862 78.7065 544.602 78.7065Z" fill="white"/>
<path d="M544.602 245.15C549.343 245.15 553.185 241.307 553.185 236.567C553.185 231.827 549.343 227.984 544.602 227.984C539.862 227.984 536.02 231.827 536.02 236.567C536.02 241.307 539.862 245.15 544.602 245.15Z" fill="white"/>
<path d="M543.719 384.08C547.042 384.08 549.735 381.386 549.735 378.064C549.735 374.741 547.042 372.048 543.719 372.048C540.397 372.048 537.703 374.741 537.703 378.064C537.703 381.386 540.397 384.08 543.719 384.08Z" fill="white"/>
<path d="M544.602 145.685C546.506 145.685 548.051 144.14 548.051 142.236C548.051 140.331 546.506 138.786 544.602 138.786C542.697 138.786 541.152 140.331 541.152 142.236C541.152 144.14 542.697 145.685 544.602 145.685Z" fill="white"/>
<path d="M268.643 217.936V565.465H297.555V217.936C297.555 206.697 291.12 197.572 283.051 197.572C275.078 197.572 268.643 206.697 268.643 217.936Z" fill="url(#paint16_linear_322_853)"/>
<path d="M168.839 240.508L376.607 211.788C388.23 210.155 398.892 218.32 400.525 229.846L412.436 315.816C414.069 327.439 405.904 338.101 394.377 339.734L186.609 368.455C174.986 370.088 164.324 361.923 162.691 350.396L150.78 264.426C149.147 252.804 157.216 242.045 168.839 240.508Z" fill="url(#paint17_linear_322_853)"/>
<path d="M229.259 335.219L226.858 318.218L195.256 322.636L193.719 311.782L214.659 264.619L235.023 261.833L240.786 303.617L249.335 302.465L251.064 314.952L242.515 316.104L244.916 333.106L229.259 335.219ZM225.129 305.73L222.92 289.977C222.343 285.655 221.959 281.236 221.671 276.626L221.191 276.722C219.558 281.62 218.213 286.039 216.484 290.938L209.088 307.844V308.036L225.129 305.73Z" fill="white"/>
<path d="M308.313 287.575C311.387 309.668 304.567 325.998 286.316 328.495C267.874 331.088 257.5 315.624 254.522 295.452C251.64 274.8 258.172 257.222 276.615 254.724C295.826 252.131 305.624 268.076 308.313 287.575ZM271.428 293.147C273.541 309.476 278.632 316.776 285.068 315.816C291.503 314.951 293.905 306.306 291.696 290.073C289.486 274.32 284.972 266.443 278.248 267.308C272.1 268.268 269.026 276.625 271.428 293.147Z" fill="white"/>
<path d="M351.058 318.41L348.657 301.408L317.054 305.826L315.518 294.972L336.458 247.809L356.822 245.023L362.585 286.807L371.134 285.655L372.863 298.142L364.314 299.295L366.715 316.296L351.058 318.41ZM346.928 288.825L344.718 273.071C344.142 268.749 343.758 264.33 343.47 259.72L342.989 259.816C341.357 264.715 340.012 269.133 338.283 274.032L330.886 290.938V291.13L346.928 288.825Z" fill="white"/>
<path d="M748.501 337.796C752.19 339.48 752.752 334.347 752.752 334.347C756.522 334.748 753.875 320.47 753.714 319.668C755.88 323.759 759.65 324.16 759.65 324.16L755.158 305.63C756.121 296.727 749.463 287.021 749.463 287.021L751.468 272.823L759.971 178.572C761.896 166.54 737.832 160.363 737.832 162.69C738.073 184.588 734.303 314.293 734.303 314.293L743.768 334.587C745.854 338.839 748.501 337.796 748.501 337.796Z" fill="#FDBFBA"/>
<path d="M748.586 258.384L750.671 369.24C750.11 372.689 750.11 376.218 750.671 379.667L778.826 542.1H815.404L793.907 377.662L814.361 258.304H748.586V258.384Z" fill="url(#paint18_linear_322_853)"/>
<path d="M818.136 565.282H746.104C746.104 565.282 739.848 555.977 765.115 547.474C766.078 547.153 766.96 546.752 767.842 546.271L778.35 540.496L817.013 539.453C817.093 539.533 818.136 565.282 818.136 565.282Z" fill="url(#paint19_linear_322_853)"/>
<path d="M840.675 565.282H768.643C768.643 565.282 762.387 555.977 787.654 547.474C788.536 547.153 789.419 546.833 790.301 546.351L802.975 539.533H839.552C839.632 539.533 840.675 565.282 840.675 565.282Z" fill="url(#paint20_linear_322_853)"/>
<path d="M840.191 270.176L824.068 383.036L840.191 540.014H802.571L774.977 379.748C774.736 378.384 774.656 376.94 774.656 375.576L777.785 270.176H840.191Z" fill="url(#paint21_linear_322_853)"/>
<path d="M805.133 58.0912L801.924 104.615L774.892 105.818L774.812 93.9467V91.059L774.732 79.5082V79.1873C774.571 79.1873 774.491 79.1874 774.331 79.1071C749.946 75.4975 758.689 16.4603 758.689 16.4603C784.919 4.6689 803.609 17.102 809.946 34.3479C816.363 51.5939 805.133 58.0912 805.133 58.0912Z" fill="#FDBFBA"/>
<path d="M745.297 118.171L733.346 176.486H753.88L745.297 118.171Z" fill="url(#paint22_linear_322_853)"/>
<path d="M855.747 134.615C854.865 136.781 854.063 138.947 853.341 141.273C842.432 174.08 839.945 281.566 839.945 281.566L748.822 282.93C748.822 282.689 745.373 118.252 745.373 118.252C744.331 118.893 773.127 99.9628 773.448 99.7222C791.095 110.872 803.288 93.0645 803.288 93.0645C817.806 96.9147 837.86 103.252 846.362 107.102C846.683 107.182 846.924 107.342 847.245 107.503C847.245 107.503 847.325 107.503 847.325 107.583C853.02 110.23 856.95 115.685 857.352 121.941C857.753 128.519 855.747 134.615 855.747 134.615Z" fill="url(#paint23_linear_322_853)"/>
<path d="M855.751 134.615C854.869 136.78 854.067 138.946 853.345 141.272C850.297 148.652 846.446 157.395 841.393 167.582C836.34 177.77 812.275 156.032 812.275 156.032L825.832 116.406C827.757 111.112 832.249 107.021 837.783 106.059C840.35 105.658 843.238 105.818 846.286 107.101C846.607 107.182 846.847 107.342 847.168 107.503C847.168 107.503 847.249 107.503 847.249 107.583C852.944 110.23 856.874 115.684 857.275 121.941C857.757 128.518 855.751 134.615 855.751 134.615Z" fill="url(#paint24_linear_322_853)"/>
<path d="M840.185 169.828L832.484 180.978L809.142 214.748C802.565 224.293 787.805 221.325 785.399 209.935L778.982 179.374L775.132 155.791L774.249 150.336L769.998 124.347C769.998 124.347 762.297 116.647 761.014 112.796C761.014 112.796 758.447 98.7589 759.73 96.1921C761.014 93.6252 763.581 96.1921 763.581 96.1921C763.581 96.1921 764.222 84.7215 764.222 82.1547C764.222 77.021 764.624 77.021 765.907 77.021C769.356 77.021 771.041 82.1547 771.201 91.0584L773.768 101.326L780.666 108.064L780.185 98.7589C780.185 98.7589 786.602 97.4755 786.602 107.743L784.035 118.01L794.864 155.871L802.003 180.015L811.709 155.871L812.431 156.192L840.185 169.828Z" fill="#FDBFBA"/>
<path d="M796.393 43.4118C796.393 43.4118 788.211 30.1766 792.783 24.0001C792.783 24.0001 769.36 41.4867 758.131 24.5616C746.339 6.83443 770.724 -8.96766 799.601 8.11785C799.601 8.11785 807.943 5.47079 815.243 15.9788C815.243 15.9788 821.179 40.3637 803.692 65.0695V56.4867C803.692 56.4867 812.435 41.0856 801.446 39.4813C801.446 39.4011 798.318 39.722 796.393 43.4118Z" fill="#473765"/>
<path opacity="0.12" d="M797.999 69.3206C791.502 86.8873 780.031 92.3419 774.817 94.0263V91.1387L774.737 79.5879V79.267C774.577 79.267 774.496 79.267 774.336 79.1868C786.368 77.9034 797.598 69.5612 797.999 69.3206Z" fill="black"/>
<path opacity="0.12" d="M840.19 169.828L832.409 180.978L812.355 156.112L840.19 169.828Z" fill="black"/>
<defs>
<linearGradient id="paint0_linear_322_853" x1="407.827" y1="463.178" x2="300.131" y2="490.748" gradientUnits="userSpaceOnUse">
<stop stop-color="#79BFFD"/>
<stop offset="1" stop-color="#342EAD"/>
</linearGradient>
<linearGradient id="paint1_linear_322_853" x1="418.524" y1="475.801" x2="361.998" y2="485.366" gradientUnits="userSpaceOnUse">
<stop stop-color="#79BFFD"/>
<stop offset="1" stop-color="#342EAD"/>
</linearGradient>
<linearGradient id="paint2_linear_322_853" x1="660.479" y1="502.239" x2="588.176" y2="520.733" gradientUnits="userSpaceOnUse">
<stop stop-color="#79BFFD"/>
<stop offset="1" stop-color="#342EAD"/>
</linearGradient>
<linearGradient id="paint3_linear_322_853" x1="618.103" y1="510.626" x2="580.139" y2="517.047" gradientUnits="userSpaceOnUse">
<stop stop-color="#79BFFD"/>
<stop offset="1" stop-color="#342EAD"/>
</linearGradient>
<linearGradient id="paint4_linear_322_853" x1="698.613" y1="515.441" x2="261.175" y2="520.618" gradientUnits="userSpaceOnUse">
<stop stop-color="#05CC7B"/>
<stop offset="1" stop-color="#53E59F"/>
</linearGradient>
<linearGradient id="paint5_linear_322_853" x1="530.89" y1="285.452" x2="558.339" y2="285.452" gradientUnits="userSpaceOnUse">
<stop stop-color="#0A073D"/>
<stop offset="1" stop-color="#2A2687"/>
</linearGradient>
<linearGradient id="paint6_linear_322_853" x1="624.303" y1="7.87311" x2="634.226" y2="7.87311" gradientUnits="userSpaceOnUse">
<stop stop-color="#EA84DE"/>
<stop offset="1" stop-color="#FF6D5A"/>
</linearGradient>
<linearGradient id="paint7_linear_322_853" x1="432.755" y1="261.007" x2="640.596" y2="239.095" gradientUnits="userSpaceOnUse">
<stop stop-color="#F46595"/>
<stop offset="1" stop-color="#FF6D5A"/>
</linearGradient>
<linearGradient id="paint8_linear_322_853" x1="478.254" y1="377.611" x2="626.225" y2="377.611" gradientUnits="userSpaceOnUse">
<stop stop-color="#D3D1FF"/>
<stop offset="1" stop-color="#342EAD"/>
</linearGradient>
<linearGradient id="paint9_linear_322_853" x1="512.988" y1="144.29" x2="603.015" y2="144.29" gradientUnits="userSpaceOnUse">
<stop stop-color="#D3D1FF"/>
<stop offset="1" stop-color="#342EAD"/>
</linearGradient>
<linearGradient id="paint10_linear_322_853" x1="476.068" y1="69.4854" x2="640.732" y2="69.4854" gradientUnits="userSpaceOnUse">
<stop stop-color="#FFC2BA"/>
<stop offset="1" stop-color="#FF6D5A"/>
</linearGradient>
<linearGradient id="paint11_linear_322_853" x1="423.181" y1="136.042" x2="444.978" y2="136.042" gradientUnits="userSpaceOnUse">
<stop stop-color="#F46595"/>
<stop offset="1" stop-color="#F89597"/>
</linearGradient>
<linearGradient id="paint12_linear_322_853" x1="403.939" y1="149.69" x2="425.063" y2="149.69" gradientUnits="userSpaceOnUse">
<stop stop-color="#F46595"/>
<stop offset="1" stop-color="#F89597"/>
</linearGradient>
<linearGradient id="paint13_linear_322_853" x1="398.269" y1="173.707" x2="417.012" y2="173.707" gradientUnits="userSpaceOnUse">
<stop stop-color="#F46595"/>
<stop offset="1" stop-color="#F89597"/>
</linearGradient>
<linearGradient id="paint14_linear_322_853" x1="636.911" y1="18.1665" x2="649.067" y2="18.1665" gradientUnits="userSpaceOnUse">
<stop stop-color="#EA84DE"/>
<stop offset="1" stop-color="#FF6D5A"/>
</linearGradient>
<linearGradient id="paint15_linear_322_853" x1="648.724" y1="31.8911" x2="661.275" y2="31.8911" gradientUnits="userSpaceOnUse">
<stop stop-color="#EA84DE"/>
<stop offset="1" stop-color="#FF6D5A"/>
</linearGradient>
<linearGradient id="paint16_linear_322_853" x1="268.646" y1="381.489" x2="297.576" y2="381.489" gradientUnits="userSpaceOnUse">
<stop stop-color="#0A073D"/>
<stop offset="1" stop-color="#2A2687"/>
</linearGradient>
<linearGradient id="paint17_linear_322_853" x1="156.706" y1="307.395" x2="406.436" y2="272.832" gradientUnits="userSpaceOnUse">
<stop stop-color="#F46595"/>
<stop offset="1" stop-color="#FF6D5A"/>
</linearGradient>
<linearGradient id="paint18_linear_322_853" x1="744.796" y1="663.668" x2="791.117" y2="335.994" gradientUnits="userSpaceOnUse">
<stop stop-color="#79BFFD"/>
<stop offset="1" stop-color="#6568EB"/>
</linearGradient>
<linearGradient id="paint19_linear_322_853" x1="791.25" y1="552.397" x2="718.547" y2="552.397" gradientUnits="userSpaceOnUse">
<stop stop-color="#2B0246"/>
<stop offset="1" stop-color="#6A4586"/>
</linearGradient>
<linearGradient id="paint20_linear_322_853" x1="862.431" y1="552.397" x2="789.728" y2="552.397" gradientUnits="userSpaceOnUse">
<stop stop-color="#2B0246"/>
<stop offset="1" stop-color="#6A4586"/>
</linearGradient>
<linearGradient id="paint21_linear_322_853" x1="801.353" y1="462.28" x2="840.811" y2="165.486" gradientUnits="userSpaceOnUse">
<stop stop-color="#79BFFD"/>
<stop offset="1" stop-color="#6568EB"/>
</linearGradient>
<linearGradient id="paint22_linear_322_853" x1="740.645" y1="149.214" x2="790.969" y2="220.696" gradientUnits="userSpaceOnUse">
<stop stop-color="#2B0246"/>
<stop offset="1" stop-color="#6A4586"/>
</linearGradient>
<linearGradient id="paint23_linear_322_853" x1="808.25" y1="279.044" x2="800.407" y2="163.349" gradientUnits="userSpaceOnUse">
<stop stop-color="#2B0246"/>
<stop offset="1" stop-color="#6A4586"/>
</linearGradient>
<linearGradient id="paint24_linear_322_853" x1="837.265" y1="176.894" x2="832.691" y2="106.556" gradientUnits="userSpaceOnUse">
<stop stop-color="#2B0246"/>
<stop offset="1" stop-color="#6A4586"/>
</linearGradient>
</defs>
</svg>
