<svg width="40" height="46" viewBox="0 0 40 46" fill="none" xmlns="http://www.w3.org/2000/svg">
<g opacity="0.35">
<path d="M16.7159 16.2622C17.6724 15.5213 23.0073 11.8973 23.9773 11.345C24.7991 10.8869 24.9877 10.7119 25.1628 10.2539C25.6343 9.00093 26.3618 4.9054 26.6447 1.88769C26.7929 0.39231 25.8499 -0.415923 24.6778 0.217256C24.4218 0.351975 23.6944 0.715716 23.0612 1.02557C22.428 1.32195 20.5958 2.48054 18.9792 3.58523C15.3553 6.07753 15.463 4.83812 14.8433 11.0622C14.7086 12.5037 13.6443 18.6467 16.7159 16.2622ZM17.2683 7.8423C17.2683 7.4112 17.7263 7.03404 20.6362 5.06714C22.0777 4.08369 23.4788 3.11363 23.7348 2.89808C24.368 2.38615 24.3949 2.39968 24.2602 3.22146C23.5462 7.57289 23.0612 8.66416 22.5897 9.94402C19.5989 11.4663 16.2309 13.9989 16.1097 13.9316C16.0558 13.8507 17.2683 8.96046 17.2683 7.8423Z" fill="#342EAD"/>
<path d="M15.4897 30.5291C16.5001 30.5291 23.0474 24.6688 23.6671 24.2242C24.947 23.3081 26.5367 16.0602 25.5532 15.6022C25.1491 15.4136 25.2299 15.4001 24.2599 15.6426C23.8423 15.7504 22.1044 16.5317 20.3935 17.3939C16.5001 19.3474 16.9042 18.6872 16.4462 19.8458C15.2472 22.8635 14.4793 28.8045 14.1695 29.303C13.8596 29.7475 14.7083 30.5291 15.4897 30.5291ZM16.6483 26.0833C17.1737 24.4263 17.726 22.1091 18.1167 20.5194C23.034 18.2966 23.8692 17.6633 23.8692 17.9462C23.8692 18.283 23.3438 18.9971 22.7241 23.2812C21.5655 23.9952 19.1406 25.4231 17.6183 26.5682C16.0151 27.7672 16.1094 27.8077 16.6483 26.0833Z" fill="#342EAD"/>
<path d="M11.381 21.4893C10.2629 19.5898 8.33638 21.5972 8.06694 21.7993C5.06273 24.0626 3.82331 25.5041 2.23362 26.8917C1.41183 27.6192 1.86989 27.4171 0.630478 31.8089C-0.743655 36.6858 0.0242434 37.7231 3.93109 34.7727C6.35601 32.9406 6.49073 32.9674 9.15816 31.0544C10.3033 30.246 10.182 29.4243 10.8017 27.2149C11.5427 24.5879 11.7852 22.1629 11.381 21.4893ZM7.90528 29.3436C7.75709 30.2731 6.46378 30.1923 4.01191 31.9436C2.23362 33.2235 3.08236 32.7384 3.52694 29.2626L3.6886 27.9964C8.26902 24.3455 9.31983 23.0387 9.31983 23.5237C9.31983 23.5237 8.01305 28.67 7.90528 29.3436Z" fill="#342EAD"/>
<path d="M36.8833 5.57894C34.8221 6.8453 29.4738 10.86 28.9753 11.2911C28.5577 11.6413 28.1535 11.9377 28.0862 11.9377C27.5877 11.9377 27.9649 13.8373 27.5877 17.0166C27.0084 21.9473 27.3183 23.0654 32.2355 20.142C33.1246 19.6166 34.4584 18.9701 35.2263 18.6871C37.5569 17.8249 37.3952 17.9866 37.4895 16.6529C37.53 16.0197 37.7724 14.7264 38.0015 13.7564C38.5538 11.5201 38.9849 9.02771 39.1196 7.47844C39.3217 5.28252 38.217 4.75716 36.8833 5.57894ZM36.6678 9.53972C36.2636 11.6413 35.2128 15.8983 35.1589 16.3698C35.0915 16.9222 33.0977 17.3802 30.4976 18.8621C29.1504 19.63 29.2582 19.7514 29.5411 17.798C29.824 15.8985 29.9992 14.0259 30.1204 12.746C30.1204 12.746 35.1993 9.17598 35.7921 8.73142C37.0989 7.74797 37.018 7.69408 36.6678 9.53972Z" fill="#342EAD"/>
<path d="M31.8178 22.2302C28.8001 24.1433 26.914 25.4096 26.7523 25.4096C26.2673 25.4096 24.7315 32.3881 24.8932 33.8295C24.9471 34.2741 25.0683 35.5135 25.0683 35.5944C25.2165 36.7125 28.3016 35.2306 32.6934 31.9031C33.9194 30.9735 34.081 30.8927 34.593 30.9196C35.4148 30.96 35.6438 30.5155 35.9402 28.3734C36.9236 21.0851 35.9402 19.6167 31.8178 22.2302ZM33.5152 29.6667C33.5017 29.6802 32.653 30.1248 31.6157 30.6771C27.8436 32.6575 26.7523 33.7083 26.8736 33.1964C26.9409 32.9269 27.5068 28.9392 27.7088 27.3496C27.7627 26.9589 27.857 26.7568 28.0726 26.649C28.2342 26.5682 34.0272 23.1733 34.0272 23.1733C34.0406 23.1867 33.7712 29.6667 33.5152 29.6667Z" fill="#342EAD"/>
<path d="M21.7141 28.5215C21.1752 28.8583 18.4 30.8522 16.7968 32.0646C14.4258 33.8564 14.089 34.3685 13.3076 37.3997C13.0517 38.3966 12.6879 39.7033 12.4993 40.2961C10.8827 45.4289 12.661 45.6578 13.8061 44.8899C14.6144 44.3375 19.4239 40.3231 20.4747 39.3261C21.256 38.5717 21.5255 38.3966 21.7814 38.4505C22.6032 38.6121 22.8861 37.9114 23.3981 34.3818C23.8157 31.4854 24.2064 26.9723 21.7141 28.5215ZM21.768 31.243C21.6333 32.1456 20.9058 36.4701 20.9058 36.8877C20.9058 37.1167 14.2641 41.7376 14.3719 41.3334C15.3688 37.3996 15.2072 34.84 15.6517 34.84C15.8808 34.84 16.4466 34.4628 19.7472 32.1052C22.0778 30.4347 21.8757 30.5155 21.768 31.243Z" fill="#342EAD"/>
<path d="M3.3384 22.4055C3.85033 22.1361 5.23795 20.8561 7.09703 19.3607C11.7718 15.5751 11.9739 15.3058 12.6744 11.8031C13.4423 7.92316 13.7791 3.23486 10.7075 5.72716C9.81836 6.45464 4.73949 10.3211 3.99854 10.833C2.9612 11.5605 1.82955 19.7379 1.42539 21.5162C1.2772 22.2033 2.55703 22.7962 3.3384 22.4055ZM5.31876 12.5441C10.2629 8.81231 10.9365 8.27343 10.9365 8.50245C10.9365 8.66412 10.0204 12.7731 9.93961 13.5814C9.85878 14.4706 7.07009 16.3969 3.76949 19.1856C3.33839 19.5359 3.82338 18.9702 5.31876 12.5441Z" fill="#342EAD"/>
</g>
</svg>
