<svg width="86" height="84" viewBox="0 0 86 84" fill="none" xmlns="http://www.w3.org/2000/svg">
<g opacity="0.3">
<path d="M8.45066 41.8268C7.402 41.8268 7.402 41.8629 8.30602 43.671C9.31851 45.6236 10.9457 46.2745 9.86091 47.0339C8.7761 47.7932 6.82344 46.2022 6.17255 45.4067C4.58149 43.4901 4.25597 40.308 5.73855 41.1036C6.6064 41.5736 8.30602 41.5736 8.30602 41.1036C8.30602 40.1634 5.05161 38.9339 3.31591 39.2232C0.27843 39.6933 2.41183 45.7683 6.31715 47.7209C8.9569 49.0589 11.7413 48.9142 12.1029 47.4678C12.5729 45.6959 10.0779 41.8268 8.45066 41.8268Z" fill="#342EAD"/>
<path d="M75.3829 6.85962C73.7557 2.99034 71.3691 4.50908 72.3816 6.57033C72.5263 6.85961 72.5263 7.22122 71.9115 7.47434C69.6696 8.37835 68.3317 4.43676 68.3317 2.80954C68.3317 1.83321 68.4401 1.83321 70.0674 2.95418C71.5861 3.96667 72.5986 4.11131 72.924 3.31578C73.7196 1.21848 67.2107 -1.13195 65.4388 0.603753C64.1009 1.94169 64.7879 4.83452 67.0299 7.22122C70.2482 10.6926 76.8655 10.4033 75.3829 6.85962Z" fill="#342EAD"/>
<path d="M4.83424 19.1181C8.45032 20.9623 11.0539 19.7328 9.5713 16.8762C8.66729 15.1043 5.05124 13.1155 5.05124 14.3449C5.05124 14.5257 5.19581 14.7065 5.34045 14.7065C5.77438 14.7065 8.26952 16.8762 7.29319 17.6717C6.31693 18.4672 4.07495 17.0931 2.91781 15.1043C1.68836 12.9708 2.62846 11.9945 3.56863 12.5007C4.54496 13.0432 6.20845 12.9708 6.02765 12.4284C5.62988 11.199 1.8692 10.0057 0.603581 10.7289C-1.27676 11.8499 1.54364 17.4547 4.83424 19.1181Z" fill="#342EAD"/>
<path d="M17.5623 61.498C16.6944 62.1127 16.9476 65.0056 17.9601 66.1266C18.9726 67.2475 20.5275 67.9707 21.9377 68.0792C25.7346 68.4047 24.035 64.6801 24.035 64.7163C22.4078 61.6788 19.3703 60.1601 17.5623 61.498ZM19.8404 64.6801C19.2257 63.1976 19.7681 62.7275 20.5998 62.7275C21.0337 62.7275 21.6123 63.1976 21.8654 63.9569C22.8056 66.7051 20.9614 67.356 19.8404 64.6801Z" fill="#342EAD"/>
<path d="M48.3351 23.3849C50.4686 23.5295 53.7592 23.7465 56.0011 24.1442C60.6297 24.9398 61.606 24.1804 59.9426 21.1429C58.8578 19.1541 56.9413 18.6117 54.5909 19.5518C49.8177 21.4684 48.3713 20.2027 51.1195 16.5144C55.0971 11.1265 48.3709 12.609 47.937 14.7787C47.7923 15.4296 47.1418 16.8398 46.4548 17.8885L45.1891 19.7688C39.2227 19.7688 39.2588 20.0581 38.8972 17.2014L38.6441 15.1764C42.2963 10.7287 45.9124 6.49792 45.9124 4.90675C45.9124 2.484 42.8026 4.00274 40.3075 7.6189L38.8611 9.7162C38.6803 4.32822 38.8972 2.41168 36.0406 2.41168C35.462 2.41168 34.9919 2.91793 35.0642 3.4965L35.8959 11.2711C31.8459 7.07649 30.3272 5.30452 29.2062 5.30452C26.4942 5.30452 28.2661 7.07649 35.7874 15.3572V19.4072H29.0978L28.0853 17.8161C25.5179 13.7662 22.8782 11.9581 21.6849 13.4407C21.3233 13.8747 21.5764 14.3447 23.2036 16.2612C26.1326 19.6242 26.2411 19.4072 21.4679 19.371C16.8394 19.3349 16.4778 19.4795 17.0202 21.3237C17.8519 24.1804 18.9005 24.759 22.2996 24.1081C25.1924 23.5657 25.2286 23.5657 23.6737 25.7353C21.938 28.1942 21.9742 29.1705 23.8183 29.1705C26.5304 29.1705 27.579 26.8563 29.5317 23.5657L35.462 23.3487V25.1206C35.462 26.8563 35.3897 26.9647 33.22 28.8451C30.9781 30.7977 28.8085 33.6906 29.1701 34.2692C29.6763 35.1008 31.4843 34.5223 33.22 32.9674L35.0281 31.3402C35.1727 32.5334 35.462 34.5223 35.245 36.2218C34.9919 38.1383 37.9571 40.5249 38.5356 38.8615C38.6803 38.3914 39.0419 34.45 39.1142 30.5085L41.6093 32.7143C44.2128 35.0285 46.0932 35.6432 46.5994 34.3415C46.8525 33.6183 43.345 29.9661 40.8499 28.3388C39.1504 27.254 39.1142 27.2179 39.1142 25.2652V23.3125H44.5383C46.8164 26.8563 48.0816 29.4598 51.1914 29.4598C53.1079 29.4598 52.7105 27.8688 50.0708 25.0482L48.3351 23.3849Z" fill="#342EAD"/>
<path d="M80.3377 53.0003L77.4449 53.0364L78.1681 51.4092C79.7592 47.8293 76.5409 47.5039 73.9373 50.9753C71.7315 53.8681 71.9847 53.6512 70.6106 53.9405L69.4534 54.1936C69.4534 51.4092 69.2365 51.3007 71.4061 48.2271C73.4672 45.2619 74.769 42.6946 74.4074 42.333C73.865 41.7905 72.2739 42.1883 70.9722 43.237C69.2365 44.6111 69.2365 44.6111 68.911 43.2731C68.5856 41.7905 67.103 41.0312 65.9097 41.7905C65.6566 41.9713 65.3311 42.9115 65.2227 43.9602C64.9695 46.1298 65.0419 46.0936 63.487 44.9365C58.7861 41.3566 59.7263 46.9615 64.4633 50.8668C64.8249 51.1923 65.078 51.9155 65.078 52.7472C65.078 54.9529 63.7401 54.6998 60.9196 51.9878C58.6053 49.7458 57.412 49.2034 55.8571 49.565C54.6276 49.8905 54.7361 50.5052 56.2187 51.9516C57.8459 53.5427 57.8098 53.7597 55.9294 53.7597C52.6388 53.7597 53.1089 55.6038 56.5441 56.1101L58.1352 56.327C55.4955 60.8471 55.2424 61.0641 55.9294 61.6065C57.1227 62.4743 57.412 62.3297 59.9794 59.1476C62.6191 55.9654 62.2937 56.2547 65.0419 56.2547C65.0419 59.9793 65.1503 60.4132 64.2102 60.9194C63.2338 61.4257 60.5218 64.7163 60.5218 65.4033C60.5218 66.235 63.053 66.5604 64.1017 65.9096C65.3311 65.114 65.4035 65.114 65.4035 66.4881C65.4035 67.9345 65.9459 68.5493 67.2838 68.5493C68.4771 68.5493 69.0195 67.6814 69.0195 65.8734C69.0195 64.3547 68.9833 64.3547 70.8275 65.2948C76.7217 68.2962 76.3601 64.4993 70.3574 60.3409C66.4883 57.665 69.9597 54.9529 74.0458 57.448C79.94 61.1002 83.9538 60.3047 79.0721 56.4717C78.3489 55.9293 78.0958 55.5315 78.4212 55.5315C80.0123 55.4954 83.6283 54.8083 83.9899 54.4829C84.9301 53.615 83.339 52.9641 80.3377 53.0003Z" fill="#342EAD"/>
<path d="M77.3721 27.0011C74.5154 29.8578 81.2051 36.2582 85.0019 34.2332C87.714 32.7868 81.3859 22.9873 77.3721 27.0011ZM81.0966 31.1596C80.6627 30.5449 80.1926 29.6047 80.0479 29.0623C79.6502 27.5435 81.7113 27.7243 82.3622 29.3154C83.2662 31.3404 82.1453 32.5698 81.0966 31.1596Z" fill="#342EAD"/>
<path d="M35.7509 73.7204C33.5813 74.516 33.6898 76.7941 36.0763 80.0485C38.7522 83.7007 44.8272 84.2431 44.8272 80.8802C44.8272 77.6619 40.3071 72.0209 35.7509 73.7204ZM41.2835 81.2418C39.9455 81.3141 35.8594 77.1918 37.6312 75.2392C38.6076 74.1544 40.4156 75.0222 41.4281 77.0834C42.3683 78.9999 42.9107 81.2056 41.2835 81.2418Z" fill="#342EAD"/>
<path d="M42.8747 57.2312C44.972 54.0491 35.8234 46.9255 33.1114 49.6375C32.3882 50.3245 32.3882 52.3857 33.0391 53.6875C34.8109 57.1227 41.3921 59.4731 42.8747 57.2312ZM38.6801 52.241C39.6203 53.3982 39.9457 54.8084 39.4756 55.2785C38.6801 56.0741 35.7872 52.9643 35.7872 51.337C35.7872 50.2884 37.5953 50.867 38.6801 52.241Z" fill="#342EAD"/>
</g>
</svg>
