<svg width="152" height="140" viewBox="0 0 152 140" fill="none" xmlns="http://www.w3.org/2000/svg">
<path d="M72.7096 24.7964C80.8319 28.6869 80.9261 28.6918 81.5099 27.6651C82.3229 26.2352 80.711 21.0489 79.4134 20.9418C79.3559 20.9577 77.476 20.0828 75.2452 19.057C61.6614 12.7404 60.7978 12.6377 62.0582 17.3328C62.8016 20.0359 63.0949 20.2029 72.7096 24.7964Z" fill="white"/>
<path d="M71.7972 38.6879C71.5824 40.9431 74.6729 42.8463 87.6277 48.5627C91.6334 50.3066 92.8448 49.1998 90.9482 45.453C89.7188 43.0073 88.4039 42.1629 81.5973 39.4571C74.0731 36.3919 72.0222 36.2444 71.7972 38.6879Z" fill="white"/>
<path d="M101.986 71.8635C103.549 69.1136 99.8698 65.857 91.419 62.459C85.0941 59.9301 83.033 59.9712 83.1747 62.6232C83.4545 66.227 100.422 74.6133 101.986 71.8635Z" fill="white"/>
<path d="M109.871 43.0633C112.616 42.5866 111.308 37.3787 108.05 35.7692C107.479 35.4931 104.94 34.2431 102.306 32.988C93.5392 28.7798 91.8072 28.6685 92.5111 32.465C92.9871 34.8704 107.162 43.5609 109.871 43.0633Z" fill="white"/>
<path d="M72.6706 57.7175C73.5462 56.1776 70.3822 51.7585 67.6647 50.65C67.4605 50.5825 65.9106 49.8952 64.1931 49.1613C55.3333 45.2881 51.5518 45.7094 53.9473 50.3707C55.3183 52.994 71.6908 59.4407 72.6706 57.7175Z" fill="white"/>
<path d="M123.903 65.7429C125.279 63.323 121.735 59.6581 115.53 57.0034C108.566 54.0625 105.693 53.7393 105.818 55.9938C106.028 58.7817 122.736 67.7961 123.903 65.7429Z" fill="white"/>
<path d="M66.5355 75.6743C69.3004 76.9553 73.3328 78.9084 75.4694 79.9291C79.7584 82.0282 80.6945 81.8327 79.4644 79.047C78.4183 76.7055 67.0192 69.4479 62.5649 68.3222C55.5562 66.569 58.3924 71.8205 66.5355 75.6743Z" fill="white"/>
<path d="M38.6821 55.7142C30.5512 52.6921 27.0831 52.9034 28.9006 56.3627C30.6023 59.5136 48.084 66.0575 47.9006 63.4788C47.6848 60.445 44.8496 58.008 38.6821 55.7142Z" fill="white"/>
<path d="M54.4131 33.5091C55.0385 32.4091 54.369 30.0879 53.2108 29.1383C51.2927 27.5625 38.1935 20.3085 36.3143 19.7736C31.6083 18.4079 32.8888 25.2005 35.7271 26.5232C35.9312 26.5908 53.5375 35.049 54.4131 33.5091Z" fill="white"/>
<path d="M86.8684 121.15C84.3609 120.354 83.5593 122.276 85.0785 125.663C85.5832 126.823 99.0463 132.925 100.332 132.541C103.762 131.628 94.0769 123.405 86.8684 121.15Z" fill="white"/>
<path d="M134.103 89.4458C133.428 87.2187 121.66 78.7323 120.281 79.452C118.938 80.1925 118.469 83.662 125.665 87.5597C133.208 91.7025 134.967 92.3631 134.103 89.4458Z" fill="white"/>
<path d="M114.016 95.2484C113.658 94.1715 100.27 86.3162 95.6621 84.5213C91.7196 83.0074 90.0416 83.6547 91.726 86.0681C92.7599 87.5777 95.8382 88.6488 110.873 95.7418C113.989 97.1737 114.616 97.0938 114.016 95.2484Z" fill="white"/>
<path d="M90.0344 102.184C89.1796 101.213 82.7891 97.434 79.5217 96.0128C72.1593 92.7485 69.5016 92.6441 70.3083 95.5772C70.8145 97.4176 72.1343 98.1682 81.1451 101.691C84.9568 103.179 88.6325 104.735 89.2925 105.11C91.1257 106.152 91.6916 104.048 90.0344 102.184Z" fill="white"/>
<path d="M57.9142 88.1917C55.9961 86.6159 45.1226 80.4819 43.1385 79.7903C37.7567 77.9918 40.5807 84.8858 42.8216 85.7233C47.2666 87.3773 56.1523 91.1197 57.8756 92.0995C60.9921 93.8715 61.0271 90.738 57.9142 88.1917Z" fill="white"/>
<path d="M66.3961 113.294C65.859 111.679 55.1869 104.252 52.0985 103.369C47.8742 102.18 48.4401 107.499 52.7234 109.353C56.2316 110.862 61.0173 112.856 63.8246 114.403C66.1712 115.738 67.0805 115.333 66.3961 113.294Z" fill="white"/>
</svg>
