<svg width="82" height="100" viewBox="0 0 82 100" fill="none" xmlns="http://www.w3.org/2000/svg">
<path opacity="0.4" d="M70.4397 52.6789C74.6273 53.9045 73.3677 56.4919 74.9678 55.6748C77.0106 54.6194 80.347 55.5727 81.2662 57.5473C82.7642 60.7135 79.1214 66.9099 73.606 70.2804C72.823 70.757 71.5974 71.54 70.9165 71.9826C67.2736 74.3318 64.7542 69.4632 64.584 59.59C64.4819 54.0747 66.5926 51.5213 70.4397 52.6789ZM69.5547 68.2377L69.9972 69.7354C75.4104 64.2882 78.4063 61.5307 78.4404 58.807C78.4744 56.5941 77.6915 56.6962 75.6488 59.2496C74.4572 60.7475 73.7422 61.3264 73.0613 61.4286C70.0312 61.8371 71.9719 58.3645 70.4058 55.4707C69.9292 54.5514 69.3504 54.8578 68.5333 56.4239C67.7503 58.058 68.2269 63.7777 69.5547 68.2377Z" fill="#FF6D5A"/>
<path opacity="0.6" d="M8.47707 34.4644C10.0091 34.873 10.3497 34.8389 10.9966 34.3963C11.8137 33.8515 14.0265 33.7835 15.3202 34.2942C19.1673 35.8262 20.5632 43.8608 18.2141 50.8401C16.4437 56.1171 14.2648 55.5044 8.47707 48.1846C1.25946 39.0264 1.25946 32.5579 8.47707 34.4644ZM6.67274 39.8774C8.13669 43.3501 13.9585 49.8188 14.367 48.3549C14.8777 46.3802 15.0479 41.2054 14.6734 39.0606C13.9244 35.0432 12.2902 34.0899 12.2902 37.6987C12.2902 39.5372 10.8944 40.1158 9.73682 38.754C9.46446 38.4136 8.74947 37.5624 8.1707 36.8815C6.3663 34.7367 5.37901 36.7793 6.67274 39.8774Z" fill="#FF6D5A"/>
<path opacity="0.4" d="M39.4927 30.4811C40.3779 30.9578 40.8546 31.026 41.2972 30.7877C45.5529 28.5407 49.3659 32.7962 47.6636 37.8009C43.3398 50.3296 39.9353 50.2954 33.5348 37.6646C30.7771 32.1833 34.454 27.7575 39.4927 30.4811ZM35.5095 34.2261C35.8159 35.4177 37.1437 37.0859 38.5395 39.1627C41.0248 42.9758 40.6503 42.8736 41.8759 40.1159C42.9994 37.6306 44.7017 36.2349 45.0081 35.1454C45.4167 33.6134 44.7358 30.3791 42.1143 33.3411C40.7865 34.8391 39.4246 34.9411 38.982 33.4431C37.8245 29.6982 35.0329 32.4217 35.5095 34.2261Z" fill="#FF6D5A"/>
<path opacity="0.7" d="M16.3075 23.9786C4.25543 13.1181 0.816954 3.00645 9.43042 3.68735L11.5752 3.85758L12.4263 2.56392C13.9584 0.282886 16.5799 -0.56838 19.3036 0.384889C24.0359 2.05311 25.7722 6.92173 24.887 16.0118C23.7294 27.6553 22.0611 29.1535 16.3075 23.9786ZM21.3804 10.0539C21.1421 3.4491 18.6226 -0.0576336 15.865 2.32554C14.401 3.58522 13.8903 5.628 14.8095 6.47914C18.4864 9.91772 19.4057 14.4798 16.4097 14.4798C13.9585 14.4798 11.6093 11.4158 11.0645 7.56865C10.6219 4.16412 7.86431 4.26606 7.86431 7.70464C7.86431 9.47499 8.71547 10.9391 12.1541 15.1607C14.2649 17.7481 20.1547 23.8083 20.359 23.57C20.7335 23.1614 21.4825 13.5265 21.3804 10.0539Z" fill="#FF6D5A"/>
<path opacity="0.4" d="M5.34531 67.08C6.36667 67.2843 6.46874 67.2161 6.46874 66.5012C6.46874 64.5606 9.46482 63.4033 12.0182 64.3225C17.4314 66.2971 21.9935 75.5915 20.87 82.3665C20.121 86.9626 0.00012207 75.7956 0.00012207 70.7568C0.00012207 68.2715 2.4855 66.5012 5.34531 67.08ZM17.6357 80.7321C17.9081 80.4597 15.1843 71.8803 14.1289 69.7355C12.3926 66.1607 10.2478 64.8671 10.2478 67.4205C10.2478 67.829 10.7585 68.8504 11.3373 69.6334C13.5162 72.4592 13.4141 72.391 13.0055 72.7996C12.2225 73.5826 9.56683 72.4932 7.79647 70.6548C5.75375 68.544 3.40466 68.5438 3.40466 70.6887C3.40466 72.1867 16.7505 81.6172 17.6357 80.7321Z" fill="#FF6D5A"/>
<path opacity="0.6" d="M45.8932 68.3396C44.4974 67.7949 41.0587 58.6027 41.0247 55.4024C41.0247 51.4532 44.4633 49.5124 48.0721 51.453C48.5828 51.7253 49.0253 52.1001 49.0253 52.2363C49.0253 52.4065 50.0467 52.5084 51.2723 52.4743C55.4259 52.4062 56.311 54.5511 54.3364 59.9643C52.1575 65.9563 48.719 69.395 45.8932 68.3396ZM50.4212 55.5045C49.1956 57.5472 46.9826 57.1387 46.9826 54.8917C46.9826 53.1214 45.4505 52.0318 45.076 53.5638C44.7015 55.0959 47.1528 63.5051 47.9699 63.5051C48.5486 63.5051 51.1703 57.7173 51.3405 56.0491C51.5448 54.0064 51.3745 53.9044 50.4212 55.5045Z" fill="#FF6D5A"/>
<path opacity="0.7" d="M44.0884 84.4093C44.6331 84.6476 45.3142 85.124 45.5525 85.3964C45.8929 85.839 46.3695 85.9071 47.6973 85.7369C53.8595 84.9879 54.983 91.3204 49.6038 96.6995C44.7354 101.568 42.1138 101.091 40.1732 94.9972C37.5517 86.7923 39.2199 82.2304 44.0884 84.4093ZM44.6332 96.2227C47.4589 92.4437 50.3527 88.903 49.8421 87.5412C49.4335 86.5198 48.1058 87.5071 47.3227 89.4137C46.4716 91.4224 43.7481 91.1841 44.0204 89.1414C44.429 86.0092 42.5223 84.3752 42.0116 87.4052C41.6371 89.6522 44.4289 95.644 44.6332 96.2227Z" fill="#FF6D5A"/>
<path opacity="0.6" d="M57.0259 13.5948C59.0346 14.7183 59.0005 14.7182 59.5453 13.2883C60.2943 11.2115 62.9158 10.5307 65.5373 11.7223C70.4058 13.9693 69.9633 22.3104 64.4479 30.5493C63.3925 32.1154 63.2904 36.5751 57.8091 31.0258C54.8131 27.9957 50.2509 22.9571 48.9912 21.1187C44.8377 15.0246 50.3531 9.84983 57.0259 13.5948ZM50.5233 16.863C50.8297 19.2122 59.239 29.2895 61.5541 30.0726C62.1669 30.2768 64.8224 21.7656 65.2309 18.3951C65.7756 13.6287 63.3924 10.6669 62.0987 14.548C61.7923 15.5013 61.5541 16.8631 61.5541 17.6121C61.5881 20.0974 59.2048 20.1993 58.0473 17.7481C55.8344 13.0158 49.9445 12.3691 50.5233 16.863Z" fill="#FF6D5A"/>
</svg>
